<?xml version="1.0" encoding="UTF-8" standalone="no"?>
<svg xmlns:inkscape="http://www.inkscape.org/namespaces/inkscape" xmlns:rdf="http://www.w3.org/1999/02/22-rdf-syntax-ns#" xmlns="http://www.w3.org/2000/svg" xmlns:cc="http://creativecommons.org/ns#" xmlns:dc="http://purl.org/dc/elements/1.1/" xmlns:sodipodi="http://sodipodi.sourceforge.net/DTD/sodipodi-0.dtd" id="svg2" sodipodi:docname="_svgclean2.svg" viewBox="0 0 158.9 157.09" version="1.1" inkscape:version="0.48.3.1 r9886">
  <sodipodi:namedview id="namedview137" bordercolor="#666666" inkscape:pageshadow="2" guidetolerance="10" pagecolor="#ffffff" gridtolerance="10" inkscape:window-maximized="0" inkscape:zoom="0.22425739" objecttolerance="10" borderopacity="1" inkscape:current-layer="svg2" inkscape:cx="372.04724" inkscape:cy="-369.09519" inkscape:window-y="0" inkscape:window-x="0" inkscape:window-width="743" showgrid="false" inkscape:pageopacity="0" inkscape:window-height="484"/>
  <g id="g4">
    <path id="_86981384" d="m96.667 8.4584c-0.2014 0.2014 0 0.4028 1.007 0.4028h0.6041c1.6111 0 7.2501-1.6111 7.2501-3.4236 0-2.0139-5.639-4.632-8.4584-4.632 0.6042 2.4167 3.625 2.0139 3.625 3.625 0 3.0209-2.2153 3.0209-4.0278 4.0278z" inkscape:connector-curvature="0" class="fil0"/>
    <path id="_86981408" d="m58.605 5.0348c0-1.4098 2.4167-3.4237 3.2223-4.632-3.4237 0-3.0209-0.2014-5.0348 1.6111-1.2083 1.007-3.2222 1.2084-3.2222 3.2223v0.2014c0 2.2153 1.4097 1.6111 2.618 2.4166 2.0139 1.007 0.4028 1.007 3.6251 1.007l0.202-0.8056c-0.403-0.8055-1.41-1.4097-1.41-2.8194v-0.2014z" inkscape:connector-curvature="0" class="fil0"/>
    <path id="_86982032" d="m84.181 1.8125c-1.2083 0.8056-2.8195 1.007-2.8195 3.0209v0.4028c0 3.4236 3.4237-0.6042 4.632 7.0486 0.4028 2.4167 4.2292 5.2362 6.6459 5.2362h0.8056c0.8055 0 1.4097-1.007 2.0139-1.4098 1.2083-1.0069 0.6041 0 2.0139-1.0069 1.2083-0.8056 1.4097-2.4167 2.8194-3.4236l1.6111-1.2084c-6.6458 0-5.2361 3.8264-9.8681 3.8264h-1.8125c-1.2083 0-1.6111-0.6041-1.8125-1.6111l1.613-2.8199-0.403-0.4027-2.618-1.007c-1.208-0.2014-2.215-1.4097-2.215-2.6181 0-1.6111 0.8055-2.618 2.0139-3.0208 0.2014 0 3.8264-1.007 3.8264-1.007 2.0139 0 4.2292 0.6042 4.2292 2.6181v0.4028c0 1.2083-1.007 2.0139-2.2153 2.2153-0.6042 0.4028-1.2083 0.6042-2.2153 0.6042h-0.2014c-0.8056 0-1.8125-1.007-1.8125-1.8126 0-1.2083 1.2083-2.4166 2.4167-2.4166 0.8055 0 0.6042 0.2013 0.8055 0.6041-1.2083 0-2.618 0.4028-2.618 1.4098 0 1.4097 1.8125 1.4097 3.2222 1.4097 0.8056-0.6042 1.6111-0.8056 1.6111-2.0139v-0.4028c0-0.6042-1.6111-1.8125-2.2153-1.8125h-1.2083c-1.6111 0-4.632 1.6111-4.632 3.4236v0.6042c0 0.6042 1.007 1.4097 1.4098 1.8125 1.4097 0 2.8194 0.6042 3.4236 0.6042h1.8125c0.8056 0 1.2083-1.007 3.8264-1.007 1.4098-0.8055 3.4237-1.2083 3.4237-3.2222 0-1.007-2.4167-2.4167-3.0209-3.4236-1.4097-1.007-1.8125-0.8056-4.0278-1.007l-5.034-0.2014c-0.806-0.2014-2.82 1.4097-3.424 1.6111z" inkscape:connector-curvature="0" class="fil0"/>
    <path id="_86981096" d="m74.313 1.4098c0.8055 1.6111 3.8264 1.8125 3.8264 3.8264 0 1.2083-0.4028 1.6111-1.2084 1.8125v0.8055l0.8056 0.2014 1.8125 0.8056 2.6181-1.2083c-0.604-0.6042-1.812-1.007-1.812-1.8126v-1.0069c0-1.8125 2.4167-2.6181 3.625-3.2223 1.007-1.8125-5.0347 0.8056-5.0347 0.8056s-1.8126-1.0069-4.632-1.0069z" inkscape:connector-curvature="0" class="fil0"/>
    <path id="_86981144" d="m69.48 2.4167c-1.41-0.2014-1.007-0.6042-2.215-0.6042h-0.2014c-1.4097 0-3.0208 1.4098-3.0208 3.0209v0.2014c0 0.8055 1.2083 1.8125 2.2153 1.8125h0.4027c1.007 0 2.4167-1.2083 2.4167-2.0139 0-0.6042-1.0069-1.2084-1.8125-1.2084h-0.4028c-0.8055 0-1.0069 0.6042-1.0069 1.2084h-0.6042c0.2014-1.4097 1.007-2.2153 2.4167-2.2153 0.8056 0 2.0139 1.0069 2.0139 1.8125v0.8056c0 1.4097-1.4097 2.618-2.8195 2.618-1.4097 0-3.625-1.4097-3.625-2.618v-0.8056c0-1.6111 2.0139-3.2222 3.625-3.2222 1.2084 0 2.2153 0.2014 2.8195 1.0069 1.8125 0 3.625 1.007 3.625 2.8195 0 3.8264-3.4236 1.8125-3.4236 5.6389l2.0139 1.2084c-0.4028 2.0139-2.2153 2.618-4.2292 2.618h-1.007c-5.8403 0-1.6111-5.0347-9.4653-4.2292l2.4167 2.0139c1.4097 1.6112 0.6042 4.2292 3.0208 4.632 2.2153 0.2014 3.8265 1.2084 6.0417 0 1.007-1.4097 3.4237-0.6042 3.4237-3.8264l0.6042-0.8056v-2.8196c1.005-1.6112 4.227-2.6181 4.227-4.0278v-0.6042c0-1.2084-1.6111-2.0139-2.618-2.2153l-0.402-1.2083c-0.806-0.6042-1.41-1.4098-2.619-1.4098h-1.409l-4.431 0.2014-0.201-0.2014c-2.8195 0-5.6389 3.2223-5.8403 4.8334-0.6042 3.0208 3.8264 4.2292 6.0417 4.2292h1.6111c0.8056 0 5.4376-2.2153 5.4376-3.2223v-0.6041c0-2.0139-2.0139-1.8125-3.0209-2.8195z" inkscape:connector-curvature="0" class="fil0"/>
    <path id="_86981432" d="m104.92 14.097 1.2083 0.8056h1.6112c2.0139 3.0209 7.0486-0.2014 7.0486-1.8125 0-1.4097-2.0139-2.8195-2.8194-2.8195h-0.8056c-1.0069 0-2.6181 0.8056-2.6181 1.8125v0.4028c0 0.8056 1.2084 1.4098 2.0139 1.4098h0.8056c0.6042 0 1.2083-1.007 1.8125-1.4098 0 1.4098-0.8056 2.0139-2.0139 2.0139h-0.8056c-1.4097 0-2.8194-1.2083-2.8194-2.4167 0-2.0139 2.2153-2.618 4.4306-2.618 1.6111 0 3.8264 1.0069 3.8264 2.8194v0.8056c0 1.6111-1.4098 2.0139-2.4167 2.6181-0.8056 0.6041-2.8195 3.4236-1.2083 2.8194 2.0139-2.8194 9.6667-2.618 5.2361-9.4653-1.4-0.6061-4.22-2.2172-5.23-2.2172h-1.007c-1.4097 0-6.8473 3.4236-6.8473 5.2361v1.007c0 0.6042 0.2014 0.6042 0.6042 1.0069z" inkscape:connector-curvature="0" class="fil0"/>
    <path id="_86981288" d="m81.362 8.6598c1.007 0 2.0139 0.2014 2.0139 1.007 0 1.6111-1.0069 1.6111-1.0069 3.625 0 1.4097 3.2222 3.8264 4.4306 3.8264h0.2014c1.0069 0 1.2083 0 1.8125-0.4028-1.4098-0.4028-2.0139-0.6042-2.2153-2.2153l-1.4097-1.4097c0-3.0209 0.6041-5.0348-2.6181-5.0348-0.6042 0-1.007 0.2014-1.2084 0.6042z" inkscape:connector-curvature="0" class="fil0"/>
    <path id="_86981048" d="m40.882 14.903c2.2153 1.2083 1.0069 0.2014 2.6181 1.8125 0.6041 0.6042 1.8125 0.8056 2.8194 1.4098 0-2.6181-2.8194-2.8195-2.8194-5.4376 0-1.8125 1.6111-3.625 3.4236-3.625h1.4097c1.6111 0 3.625 0.8055 3.625 2.2153v1.0069c0 1.007-1.8125 1.8125-3.0208 1.8125h-0.6042c-1.0069 0-2.2153-1.0069-2.2153-1.8125 0-0.8055 0.6042-1.0069 1.007-1.4097-0.2014 0.6042-0.2014 0.6042-0.2014 1.4097 0 0.2014 0.6042 1.007 1.2083 1.007h0.8056c1.2083 0 2.0139-0.6042 2.0139-1.8125v-0.202c0-1.007-1.6111-1.6111-2.6181-1.6111h-0.203c-1.4097 0-3.8264 1.2083-3.8264 2.4166v0.6042c0 2.2153 3.625 3.0209 5.6389 3.0209h0.8056c0.4028 0 1.2083-0.6042 1.6111-0.8056 0.8056-1.2083 3.6251-2.6181 1.6112-4.8334-0.403-0.6045-4.029-2.417-5.035-2.417h-0.6042c-2.8194 0-8.257 2.8194-8.257 4.8333v0.6042c0 0.8056 0.4028 1.2083 0.8056 1.8125z" inkscape:connector-curvature="0" class="fil0"/>
    <path id="_86981504" d="m68.876 16.917c0.2014 0.6042 2.0139 1.007 2.8195 1.007 1.6111 0 1.8125-1.007 2.4167-2.0139 0.6042-0.6042 2.2153-1.007 2.2153-2.0139v-1.4098c0-0.8055-1.007-1.2083-1.007-2.0139v-0.2014c0-2.0139 2.2153-1.4097 3.4237-1.4097l-1.008-0.8055-0.805-0.2014c-3.2222 0-3.625 1.6112-3.625 4.8334l-0.8055 1.007v1.4097l-3.626 1.812z" inkscape:connector-curvature="0" class="fil0"/>
    <path id="_86980784" d="m52.764 14.903c-0.2014 0.4028-0.8056 0.6042-0.8056 1.2083v1.007c0 0.8056 0.4028 0.8056 0.8056 1.007 1.2084 0.4027 2.8195 1.2083 2.8195 2.4166v0.8056c0 1.4097-1.4098 2.6181-2.8195 2.6181h-1.0069c-1.007 0-2.8195-0.6042-2.8195-1.6112v-1.0069c0-0.8056 1.0069-1.4097 1.8125-1.4097h0.8056c0.6041 0 0.6041 0.2014 1.2083 0.4027v0.6042l-2.0139-0.4028c-0.2014 0-1.0069 0.8056-1.0069 1.2084 0 0.6041 0.6041 1.4097 1.2083 1.4097h1.6111c1.2084 0 2.4167-1.0069 2.4167-2.0139 0-1.8125-2.0139-2.0139-3.0209-2.6181-4.8333 0-3.8264 2.6181-5.4375 3.0209-4.4306 3.8264 2.8195 4.632 6.6459 4.632 0 0 3.0208-2.0139 4.2292-2.2153 2.8195-4.2292-2.4167-5.0348-2.4167-7.6529v-0.403c0-0.8056 1.2083-1.8126 2.2153-1.8126h0.6042c1.6111 0 1.2083 1.007 2.4167 1.2084l-1.007-2.8195-3.8264-2.0139 0.4028 0.6042-3.0209 3.8264z" inkscape:connector-curvature="0" class="fil0"/>
    <path id="_86980592" d="m112.38 18.729-0.4027 2.4167 0.2014 4.2292-0.6042-0.2014c1.0069 0.2014 1.6111 0.6042 2.6181 0.6042 1.2083 0 1.8125-0.6042 2.4166-0.6042 3.6251 0 2.8195 1.2084 4.4306-2.0139 1.2084-5.2361 11.882-6.0417 11.882-1.0069v0.8055c0 1.007-1.6112 1.8125-2.8195 1.8125h-0.8056c-1.2083 0-2.0139-0.8055-2.0139-1.8125 0.2014 0.2014 1.2084 1.007 1.8125 1.007h1.2084c0.6042 0 1.6111-1.007 1.6111-1.6112v-0.6041c0-1.007-2.0139-2.0139-3.2222-2.0139-2.0139 0-4.8334 1.8125-4.8334 3.625 0 3.0209 4.4306 2.6181 5.4375 3.4236 0.6042 0.2014 0.6042 0.2014 1.2084 0.2014h0.4028c0.2013 0 4.0278-1.4097 4.6319-1.8125 1.6112-0.6042 2.0139-2.6181 0.8056-4.2292-1.2083-1.4097-5.6389-4.2292-8.6598-4.2292h-0.4028c-4.8333 0-9.0625 4.4306-10.674 4.4306h-0.6041c-3.8264 0 0.6041-2.6181 1.0069-2.8195 1.4098-1.6111 2.4167-0.8055 3.8264-2.0139 1.8126-1.4097 1.007-7.4514-2.2153-7.4514h-0.8055c0.6042 0.8056 1.4097 1.0069 1.4097 2.4167v2.2153c0 3.0208-4.8334 3.8264-6.8473 5.2361z" inkscape:connector-curvature="0" class="fil0"/>
    <path id="_86980424" d="m100.49 12.083-2.2153 3.0209c1.2084-0.2014 1.8125-0.6042 3.0209-0.6042h0.6041c1.007 0 1.8126 0.8056 2.014 1.6111-0.2014 1.4098-5.2362 4.2292-3.2223 8.0557 3.0209 0.8055 3.8264 2.4166 6.6459 2.4166h0.6042c0.6041 0 5.6389-2.4166 3.625-5.2361-0.6042-0.6042-2.8195-2.0139-3.8264-2.0139h-0.8056c-1.2083 0-2.6181 1.0069-2.6181 2.0139v0.8056c0 0.6041 1.6112 1.8125 2.2153 1.8125h0.4028c1.2083 0 1.8125-0.6042 2.4167-1.4098v1.2084c-0.8056 0.2014-1.4097 0.6042-2.6181 0.6042h-0.2014c-1.6111 0-2.8194-0.6042-2.8194-2.2153v-1.007c0-2.2153 3.2222-1.8125 3.2222-4.2292v-0.8056c0-1.4097-1.4097-0.8055-2.2153-1.8125l-1.4097-3.0208 0.2014-0.2014-3.0209 1.0069z" inkscape:connector-curvature="0" class="fil0"/>
    <path id="_86980712" d="m31.618 25.979c1.6112 0 3.4237-0.6042 3.4237-2.0139v-0.6042c0-0.8056-2.6181-3.0209-3.6251-3.0209h-1.8125c-1.2083 0-2.618 1.007-2.618 2.0139v0.6042c0 1.007 1.2083 1.2084 2.2152 1.2084 0.4028 0 1.007-0.4028 1.4098-0.4028l-0.2014-2.0139c0.6042 0.4028 1.0069 0.6041 1.0069 1.6111 0 0-0.8055 1.2083-0.8055 1.4097-1.2084 0-1.007 0.2014-1.8125 0.2014-1.007 0-2.6181-0.8055-2.6181-1.8125v-1.0069c0-1.007 1.8125-2.6181 3.0208-2.6181h1.8126c0.2013 0 3.8264 0.4028 4.4305 0.6042 1.2084 0.2013 2.0139 1.2083 2.4167 2.4166 0 1.4098 0.6042 2.4167 2.0139 2.4167l0.8056-0.2014 4.0278-0.6041-0.4028 0.2014 1.8125-3.0209c0.4028-0.4028 1.007-0.4028 1.007-0.8056 0-3.2222-4.4306-1.0069-4.632-4.6319l-1.8125-0.8056c-0.6042-0.2014-1.4097-0.8056-1.4097-1.6111v-0.8056c0-2.8195 4.4305-3.2222 5.0347-5.0347-2.8194 0-7.4514 3.0208-7.4514 5.0347v1.2084c0 1.2083 4.8333 4.8333 6.4445 5.0347v1.007c-5.8404 0-4.4306-3.2223-9.8682-3.2223h-2.0139c-2.4166 0-9.4653 4.632-9.4653 5.8403v0.4028c0 2.4167 3.2222 3.8264 5.2361 3.8264h1.811c1.6111 0 1.6111-0.6041 2.618-0.8055z" inkscape:connector-curvature="0" class="fil0"/>
    <path id="_86980496" d="m86.598 30.41h-1.4097c0.6041-0.6042 1.2083-0.8056 2.4166-0.8056h1.8125c-0.806 0.605-1.612 0.806-2.82 0.806zm-18.125-1.007c1.2083 0.2014 2.8194 0.6042 3.625 1.6111-1.007 0-1.4098-0.2014-2.2153-0.6041-1.2084-0.4028-0.8056-0.2014-1.4097-1.007zm1.4097-1.2083c1.6111-0.2014 3.0208 0.8055 3.4236 2.0139l-3.4236-2.0139zm17.722 0.2014-2.618 1.0069c0.4027-0.8056 1.8125-1.6111 2.8194-1.8125l-0.2014 0.8056zm-3.2222-0.4028c0.2014-0.8056 1.6111-1.8125 2.4167-2.0139-0.4028 1.0069-1.2084 1.8125-2.4167 2.0139zm-10.271 0.6041c-1.2084-0.4027-2.2153-1.4097-2.6181-2.618 1.007 0.4028 2.0139 1.8125 2.6181 2.618zm10.07-2.0139c0.2014-1.0069 0.2014-1.2083 1.007-1.6111 0 1.007-0.2014 1.2084-1.007 1.6111zm-11.479-2.2152c1.2083 0.4027 1.6111 1.2083 1.6111 2.4166h-0.4028l-1.2083-2.4166zm2.2152-4.632c0.4028 0.4028 0.6042 0.8055 1.2084 0.8055s0.8055-0.2014 0.8055-0.8055v-0.8056h-0.6041v-0.4028h1.4097c0 1.007 0.2014 0.6042 0.2014 1.4098 0 0.4027-1.007 1.4097-1.6111 1.4097-1.007 0-0.8056-0.4028-2.0139-0.6042v0.6042l-2.8195-0.4028c-1.0069 0-2.2153 2.2153 0.6042 2.2153l-1.2084 1.6111-2.0139 0.2014-0.2014 2.4167c-0.4027 0.2014-0.6041 0.6042-1.4097 0.6042h-1.006c-0.8056 0-2.6181-1.4098-1.8126-2.8195v-0.8055l-2.0139 0.6041-0.8055-5.2361c0.2014-0.8056 0-0.6042 1.0069-0.8056v-0.8055c-2.4166 0.2013-2.2153 1.8125-2.2153 4.2291v0.2014c0 4.0278 1.4098 3.8265 2.0139 5.8404l8.257 3.625c8.2571 0 2.8195-3.0209 4.4306-5.4376v-1.808l-0.202-1.007-0.403-1.208h0.8055c0.8056 0 1.2084 1.4098 5.0348 1.4098l1.2083-1.007c0.8056-0.8055 0.6042-0.6042 1.8125-0.6042l-0.2014 1.8126 0.2014 3.625c0.2014 0.8055-0.4027 1.2083-0.4027 2.8195l-0.2014 0.4027 6.2431 0.6042 6.8472-3.0209c0.6042-1.0069 1.007-1.4097 1.6112-2.618 0-0.2014 1.0069-2.8195 1.0069-2.8195 0.6042-1.6111 0.8056-6.6459-2.4167-5.2361 0.2014 1.8125 1.007 0.4027 1.007 2.4166v1.007c0 1.2083-0.2014 3.0209-1.2084 1.8125h-0.8055l-0.2014 2.4167c-0.6042 0.8056-1.007 1.8125-2.4167 1.8125h-0.8056c-1.0069 0-2.2153-1.4097-2.2153-3.0208-1.4097 0.4027-3.625 2.2152-3.625-1.4098l0.6042 0.2014 0.8056-2.0139-0.4028-0.2014-2.8195-0.2014-0.6042-0.2014c-0.4027 0.6042-0.6041 0.8056-1.6111 0.8056-0.4028 0-1.4097-0.6042-1.4097-1.4097v-0.4028c0-0.8056 0.2014-1.6111 1.0069-1.6111 0.6042 0 0.4028 0.2014 1.007 0.2014v0.6041h-1.2084v1.6111c0.4028 0 0.6042 0.2014 1.2084 0.2014 0.2014 0 0.6042-0.4027 0.8055-0.6041l-3.625-6.2431-0.2014 0.2014c-2.4167 1.4097-4.4306 2.4166-4.4306 5.8403z" inkscape:connector-curvature="0" class="fil0"/>
    <path id="_86981216" d="m80.355 24.368-2.6181 0.2013-2.0139-1.0069v1.2083c0 0.4028 0 0.4028 0.2014 0.8056 0 0.8056-0.2014 0.8056-0.2014 1.8125 0 0.6042 0.4028 0.8056 1.007 1.007 0-0.8056 0.2013-1.4098 1.0069-1.4098 0.6042 0 1.007 0.4028 1.007 1.007 0 1.0069-0.8056 0.6041-0.8056 1.6111v0.2014c0 0.6042 0.2014 1.4097 0.6042 0.2014l0.8055 0.8055 1.2084-0.6041c-0.201-1.609-0.805-1.408-0.805-2.213v-0.2014c0-0.6042 0.2014-0.8056 0.8056-0.8056h0.2014c1.0069 0 0 0.4028 1.8125 0.6042v-4.43h-0.402l-1.41 1.208h-0.403z" inkscape:connector-curvature="0" class="fil0"/>
    <path id="_86980184" d="m57.799 24.167c-0.6042 1.0069 0.2014 1.2083 0.2014 2.0139 0 2.2153-2.8195 1.8125-4.8334 1.8125l-2.2153 1.4097v0.4028c2.4167 0.2014 3.625 1.4097 6.4445 1.4097h0.6042c1.8125 0 3.0208-0.8055 4.2292-1.6111v-1.007c-2.215-1.41-1.812-4.028-2.617-6.042l-1.813 1.611z" inkscape:connector-curvature="0" class="fil0"/>
    <path id="_86980064" d="m31.618 26.584c-1.2083 0.6042-3.4236 1.2084-3.4236 2.8195v0.4028c0 1.0069 1.2083 1.8125 2.4167 1.8125l-0.2014 0.4028 2.4167 1.4097c2.4167 0 3.2222-0.6042 3.2222-3.0208-0.6042 0.4027-0.6042 0.6041-1.0069 0.6041h-0.4028c-1.007 0-1.8125-0.6041-1.8125-1.6111 0-3.625 4.6319-2.2153 4.6319-6.4445-1.0069-1.4097-1.2083-2.4167-4.0278-2.4167 0.4028 1.6112 2.0139 1.007 2.0139 3.2223 0 1.8125-2.0139 2.6181-3.8264 2.8194z" inkscape:connector-curvature="0" class="fil0"/>
    <path id="_86980328" d="m98.681 24.771-2.6181 4.4306v1.208c6.0417 4.0278 7.6529-0.6042 11.479-0.6042v-0.403c-0.8056-0.2014-1.4098-0.8056-2.6181-0.8056-2.0139 0-4.632 1.007-4.632-1.6111v-0.2014l0.2014-2.618-0.8055-0.6042-1.007 1.2083z" inkscape:connector-curvature="0" class="fil0"/>
    <path id="_86979968" d="m121.24 23.361v2.4167c1.6111 2.2153 4.8334 2.6181 4.8334 3.8264v0.6042c0 0.6041-0.4028 1.0069-1.007 1.0069h-1.2083l1.6111 2.2153c0.4028 0.2014 0.6042 0.4028 1.2084 0.4028 1.4097 0 2.2153-1.007 2.618-2.0139 0.4028-1.2083 2.0139-1.8125 2.0139-2.6181v-0.4028c0-0.6041 0-0.6041-0.2014-1.2083l-2.4166-0.6042c-1.6112-0.8055-5.639 0.6042-5.639-2.8194v-0.806c0-1.6111 1.8125-2.4167 2.6181-3.625-2.4167 0.6041-3.2222 2.2153-4.4306 3.625z" inkscape:connector-curvature="0" class="fil0"/>
    <path id="_86980280" d="m81.764 38.466c2.0139-1.2084 3.4237 0.8055 4.2292-2.4167-0.4028-0.6042-0.6042-1.4097-1.6111-1.4097h-1.2084c-0.6041 0-1.4097 0.6041-1.4097 1.0069 0 0.6042 0.6042 1.007 1.2084 1.007 0.8055 0 1.2083-0.4028 1.8125-0.8056-0.2014 1.007-0.6042 1.2083-1.6112 1.2083h-0.8055c-0.8056 0-1.6111-0.2013-1.6111-1.0069v-0.2014c0-1.4097 1.4097-2.0139 2.8194-2.0139h0.6042c1.4097 0 1.8125 0.6042 2.0139 1.8125h0.6042l-0.2014-0.2014 2.2153-1.6111v-1.6111c-1.8125 0-4.632-0.4028-6.0417-0.2014-1.2084 0.2014-3.8264 1.6111-3.8264 2.8194v1.2084c0 2.2153 0.8055 2.4167 2.8194 2.4167z" inkscape:connector-curvature="0" class="fil0"/>
    <path id="_86980688" d="m102.31 35.243 0.2014-0.2014c-0.6042-1.0069 0.2014-0.6041-1.0069-0.6041l0.8055 0.8055z" inkscape:connector-curvature="0" class="fil0"/>
    <path id="_86979632" d="m63.035 36.452c-0.4028 0.4028 0.4028 3.625 1.8125 3.625h1.007c0.8055 0 1.2083-0.4028 1.8125-0.8056h1.8125c0.6042-1.0069 1.007-1.2083 1.007-2.8194 0-0.4028-1.4098-1.8125-1.6112-2.2153-1.0069 1.4097-0.6041 3.2222-3.0208 3.2222-1.007 0-2.2153-0.8055-2.8195-1.0069z" inkscape:connector-curvature="0" class="fil0"/>
    <path id="_86979776" d="m69.077 34.035 1.8125 2.6181h0.6042c0.2014-1.2084 1.6111-2.4167 2.6181-2.4167h1.6111c1.2083 0 1.8125 0.6041 1.8125 1.8125v0.4028c0 0.6041-0.8055 1.2083-1.4097 1.2083h-1.6111c-0.8056 0-1.007-0.6042-1.007-1.6111h0.6042c0.2014 0.6042 0.2014 1.0069 1.0069 1.0069h0.6042c0.4028 0 1.2083-0.6041 1.2083-1.0069 0-0.6042-0.6041-1.2084-1.2083-1.2084h-0.6042c-1.4097 0-3.0208 1.007-3.0208 2.2153 0 1.8126 5.0347 1.8126 6.4445 1.2084 0-3.4237-0.6042-5.8403-4.0278-5.8403l-1.007 0.2014-4.632-0.2014 0.2014 1.6111z" inkscape:connector-curvature="0" class="fil0"/>
    <path id="_86979752" d="m32.827 33.834c0.6041 0.4028 1.4097 0.8056 1.4097 1.8125 0 0.4028-1.0069 1.4097-1.6111 1.4097h-0.806c-1.0069 0-1.6111-1.0069-1.6111-2.0139h-0.4028v2.8195c0.6042 0.6042 1.007 1.4097 2.2153 1.4097 1.6111 0 2.2153-1.2083 2.4167-2.4166 1.4097 0 2.8195-0.6042 2.8195-1.8126v-0.2014c0-0.8055-0.6042-1.0069-1.007-1.2083l-3.424 0.201z" inkscape:connector-curvature="0" class="fil0"/>
    <path id="_86979608" d="m54.577 35.646c1.6111 0 3.625 0.4028 3.625 1.8125 0 0.8056-0.2013 1.4098-0.4027 2.0139l0.2014 0.2014c0.8055-0.4028 1.6111-1.0069 1.6111-2.2153v-1.0069c0-1.007-0.2014-0.2014-0.6042-1.4098-0.8056-0.4027-3.0208-1.8125-3.625-1.8125h-0.4028c-1.4097 0-1.6111 0.6042-3.0209 0.6042h-0.4027c-0.6042 0-1.007-0.6042-1.007-0.8056 0-0.6041 0.2014-0.6041 0.4028-1.2083l5.0348 0.4028h0.8055c0.6042 0 0.4028-0.2014 0.6042-0.6042-3.0209 0-4.4306-1.4097-6.6459-1.4097h-1.0069c-1.2084 0-2.2153 0.8055-2.4167 1.8125-0.6042 2.0139-1.4098 2.0139-1.4098 3.2222v0.8056c0 1.0069 0.8056 1.6111 1.8126 1.6111 0.4027-1.6111 2.2152-2.8195 4.2291-2.8195h0.8056c1.007 0 1.4097 0.4028 1.8125 0.8056z" inkscape:connector-curvature="0" class="fil0"/>
    <path id="_86979680" d="m131.31 37.459 3.8265 1.8125 4.8333-0.4027c0.6042-0.4028 2.6181-1.6112 2.6181-2.4167 0-2.2153-2.6181-3.0209-4.8334-3.0209-1.0069 0-3.2222 0.6042-3.2222 1.4097 0 1.4098 0.8055 1.8126 2.2153 1.8126h0.4028c1.4097 0 1.8125-0.6042 1.8125-2.0139l0.2014-0.2014 0.2013 2.2153c-1.0069 0.2014-1.0069 0.8055-2.618 0.8055h-1.007c-0.6041 0-2.4167-1.4097-2.4167-2.2153 0-1.4097 2.2153-2.4167 4.0278-2.4167 2.6181 0 5.8404 0.8056 5.8404 3.2223v0.4028c0 1.2083-2.6181 3.625-3.2223 3.4236l-4.2292 0.2014c-1.4097-0.2014-3.625-1.6111-4.632-2.4167-2.8194-0.2014-4.6319-0.2014-4.6319-3.4236l-1.4098-0.4028-2.8194-1.6111c-0.4028 0.6041-1.2084 1.4097-1.2084 2.4167 0 1.2083 1.4098 2.2153 2.8195 2.2153v0.8055c0 2.8195 5.4375 1.8125 7.8542 1.8125l2.0139 2.4167 3.8264 0.2014v1.007c0 0.8055 0 0.4027-0.4027 0.8055 3.0208 2.0139 1.4097-1.8125 4.8333-3.2222 2.4167-1.007 3.8264-1.2084 3.8264-4.8334-0.6041-1.4097-2.618-4.632-4.6319-4.632h-1.007l-3.625 0.2014-0.6042-0.2014c-1.0069 0-5.8403 3.0209-5.8403 4.0278v0.8056c0 0.8056 0.6042 1.0069 1.2083 1.4097z" inkscape:connector-curvature="0" class="fil0"/>
    <path id="_86980040" d="m16.313 33.229c-0.4028 0.6042-2.4167 2.0139-2.4167 3.2223v1.2083c0 2.0139 4.632 3.2223 4.8333 6.8473l2.4167-1.6111c1.4098-0.6042-0.2014-2.6181 2.2153-2.4167 1.4098 0.2014 2.4167 1.4097 3.8264 1.4097 1.007 0 1.4098-0.2014 2.0139-0.6042l-1.2083-2.8194-4.2292 1.2083h-3.0208c-2.2153 0-4.2292-1.4097-4.2292-3.625 0-1.2084 4.4305-3.625 5.4375-3.625h0.2014c2.2153 0 4.4306 0.8055 4.4306 2.8194 0 1.2084-1.2084 1.8125-2.2153 1.8125h-1.4098c-0.8055 0-2.0139-0.6041-2.0139-1.4097s0.2014-0.6042 0.8056-0.8056c0 1.007 0 1.6112 1.007 1.6112h1.0069c1.007 0 1.8125-0.6042 1.8125-1.6112 0-0.8055-1.4097-1.6111-2.2153-1.6111h-1.8125c-1.2083 0-4.2292 2.0139-4.2292 3.2223 0 3.0208 4.8334 2.8194 8.0556 2.8194 1.6112 0 4.4306-3.0208 3.6251-5.0347-0.4028-1.2084-3.4237-3.625-5.4376-3.625-4.2292 0-4.8334 1.0069-7.25 2.618z" inkscape:connector-curvature="0" class="fil0"/>
    <path id="_86979104" d="m89.015 34.035c-0.6042 0.6042-1.8125 1.2083-1.8125 2.6181v0.2014c0 3.0208 2.8194 1.4097 4.2292 2.618l2.618 0.4028h0.2014l2.015-3.423c-1.41 0.201-2.014 1.208-3.826 1.208h-0.2014c-1.2083 0-2.6181-1.0069-2.6181-2.0139 0-1.0069 0.2014-1.0069 0.2014-2.0139l-0.806 0.403z" inkscape:connector-curvature="0" class="fil0"/>
    <polygon id="_86979248" points="58 39.674 57.799 39.472 57.195 40.278" class="fil0"/>
    <path id="_86979008" d="m102.51 35.042-0.2014 0.2014c-0.8055 0.6042-2.2153 1.8125-2.2153 3.0209 0 1.6111 0.4028 2.2153 1.4098 2.8195l2.8194 0.4027c-1.0069-0.6041-2.8194-0.8055-2.8194-2.618 0-1.6112 1.4097-2.4167 3.2222-2.4167 0.4028-0.4028 1.2084-1.2084 1.8125-1.2084h1.2084c2.0139 0 2.618 1.4098 3.4236 1.4098 1.007 0 2.2153-1.007 2.2153-1.8126v-0.8055c0-1.2084-3.8264-3.4236-5.2362-3.625-2.4166-0.2014-4.0278 2.0139-6.6458 2.0139 0.4027 0.6041 0.6041 0.8055 1.6111 0.8055h1.0069c0.4028 0 5.0348-1.8125 5.0348 0.2014 0 0.6042-0.2014 0.6042-0.6042 1.2084h-4.8333l-1.22 0.404z" inkscape:connector-curvature="0" class="fil0"/>
    <path id="_86979056" d="m28.799 38.667c0 3.0208 3.8264 3.0208 5.4375 2.4167 0.2014-1.007 0.6042-1.007 2.0139-1.007v-1.6111c0-1.007 0.4028-0.4028 0.8056-1.6111-3.8264 1.0069-1.8125 2.8194-4.4306 2.8194h-0.6042c-1.4097 0-2.0139-0.8055-2.4167-1.8125l-0.402-1.008-0.403 1.813z" inkscape:connector-curvature="0" class="fil0"/>
    <path id="_86979032" d="m124.26 41.285c0.6041 0.6042 1.2083 1.007 2.2153 1.007h1.2083c1.2084 0 0.8056-0.4028 2.4167-0.4028 0 0.8056 0.4028 1.2084 1.2083 1.2084 1.007 0 1.2084-0.4028 1.8125-0.8056-0.8055-2.8195-4.0278-1.8125-7.0486-1.8125-2.8195 0-1.8125-3.0209-4.8334-3.8264 0 3.0208 2.0139 3.0208 3.0209 4.6319z" inkscape:connector-curvature="0" class="fil0"/>
    <path id="_86978960" d="m54.375 35.848c-0.8055-0.2014-0.8055-0.6042-1.8125-0.6042-8.4584 0-5.6389 12.486 0.4028 8.0556 3.2222-2.0139 7.4514-1.4097 5.4375 1.8126-1.0069 1.4097-2.0139 1.4097-4.2292 1.4097-1.8125 0-4.6319 1.2083-2.4166 1.8125 0.6041 0.2014 1.6111 1.007 1.6111 1.8125v1.007c0 1.8125-2.4167 2.8194-4.2292 2.8194-1.4097 0-3.2223-1.0069-3.2223-2.2153 0-1.6111 1.8126-2.2153 3.2223-2.2153 1.0069 0 1.6111 0.6042 1.6111 1.6112-0.6042-0.4028-1.2083-0.8056-2.0139-0.8056-1.0069 0-1.8125 0.4028-1.8125 1.4097 0 0.6042 1.0069 1.4098 1.8125 1.4098 2.0139 0 3.8264-0.6042 3.8264-2.6181 0-1.2083-0.6042-1.4097-1.2083-2.0139l-2.215-0.201c-2.014-0.403-5.639 0.806-6.646 2.216 1.007 4.632 2.8195 5.2361 8.0556 5.2361h0.201c0.4028 0 4.0278-2.8194 4.4306-3.4236 0-3.2222-2.2153-2.4167 2.0139-3.625 1.6111-0.4028 3.4236-1.8125 3.0209-3.8264l-0.4028-3.0209h0.2014c2.618-1.8125 2.8194 1.2084 5.0347 1.2084h0.4028c1.4097 0 0.6042-0.6042 2.0139-0.2014 0.8056 0.2014 0.8056 0.8055 2.0139 0.8055h1.007c0.6041 0 1.2083-0.8055 1.8125-1.2083 1.0069-0.4028 1.2083 0 2.4167-0.2014 0.8055-0.2014 3.2222-1.6111 4.2292-1.6111 1.2083 0.2014 3.4236 1.0069 4.2291 1.2083 1.8126 0.4028 4.632 1.4097 4.632 1.4097h0.2014c1.4097 0 2.0139-1.0069 3.2223-1.2083 4.4305 3.0209 3.2222-1.8125 7.6528-0.8056l-0.2014 4.4306v0.8056c0 1.4097 3.8264 3.625 5.2362 3.8264 0 2.2153-0.2014 2.8195 1.2083 3.625 0.8056 0.4028 2.8195 1.4098 3.4236 1.6112 2.4167 0.8055 5.0348-1.6112 6.6459-2.6181 0-4.0278-8.257-6.4445-8.257-1.6111 0.6042 0.8055 1.2083 1.6111 2.4167 1.6111h1.0069c2.2153 0 1.4098-4.0278-2.0139-1.8125 0-0.8056 0.4028-1.2084 1.2084-1.2084h0.6042c0.8055 0 2.0139 0.6042 2.0139 1.4098v1.0069c0 1.007-1.007 1.4097-1.8126 1.4097-3.8264 0-4.6319-1.8125-3.8264-4.8333l-2.618-0.8056c-1.2084-0.6042-2.8195-1.0069-2.8195-3.0208v-0.8056c0-0.6042 1.0069-1.8125 1.8125-1.8125h0.8056c0.8055 0 0.8055 0.2014 1.2083 0.6042 1.007 0.2013 1.6111 0.6041 2.8195 0.6041 1.0069 0 4.0278-2.2153 4.4306-3.0208 0-2.2153-2.4167-4.632-5.2362-4.632h-0.4028c-0.8055 0-1.2083 0.4028-1.6111 0.6042l-1.2083 0.2014-1.6112 2.2152c1.007 1.6112 1.8126 2.2153 4.0278 2.2153h1.2084c0.6042 0 1.4097-1.0069 1.4097-1.6111s-0.6042-1.2083-1.2083-1.2083h-0.8056c-1.0069 0-1.4097 0.2014-1.6111 1.2083h-0.4028c0-1.0069 0.4028-2.0139 1.4097-2.0139h0.8056c1.4097 0 2.8195 0.8056 2.8195 2.0139 0 2.8195-7.4515 2.8195-8.6598 1.6111-0.8056-0.6041-1.8125-1.2083-1.8125-2.618 0-2.2153 1.2083-2.0139 1.8125-3.4237-6.6459 0-3.8264 5.2362-7.6528 5.2362h-0.405c-0.8056 0-1.007-0.2014-1.6111-0.4028l-2.8195-0.4028c-0.4028 0-1.8125-1.0069-1.8125-1.8125v-0.8056h-0.6042c-0.2014 0.8056-0.8056 1.6112-1.8125 1.6112h-2.0139c-0.6042 0.2014-0.6042 0.2014-1.2084 0.2014h-0.6041l-2.6181 0.2013-0.8056 0.2014c-4.4305 0-3.4236-0.6041-5.8403-1.4097-0.2014 2.0139-4.2292 2.8195-5.6389 3.0209-2.4167 0.4027-3.4236-2.0139-3.4236-4.4306l-3.224-1.609c0.8056 0.4028 1.4097 0.8056 1.4097 2.014 0 3.2222-5.0347 5.4375-8.4584 5.4375-1.0069 0-2.8194-1.007-2.8194-2.0139v-0.2014c0-1.8125 1.8125-2.6181 3.4236-2.6181h0.6042c1.2083 0 1.8125 0.6042 1.8125 1.8125 0 0.2014-0.4028 0.4028-0.6042 0.4028-0.2014-0.8055-0.8055-1.4097-2.0139-1.4097h-0.604c-0.6042 0-1.6112 0.8055-1.6112 1.4097v0.6042c0 0.6042 1.2084 1.2083 1.6112 1.2083h1.0069c1.6111 0 4.4306-1.2083 4.4306-2.618v-0.4028c0-2.2153-1.8125-2.0139-2.8195-2.6181z" inkscape:connector-curvature="0" class="fil0"/>
    <path id="_86978816" d="m53.57 43.702h1.6111v0.6042c0 1.0069-0.6042 1.2083-1.6111 1.2083v0.4028h1.6111c1.6111 0 2.6181-0.4028 2.6181-2.0139 0-0.6042-0.8056-1.4097-1.4098-1.4097h-0.201c-1.2083 0-2.0139 0.4028-2.618 1.2083z" inkscape:connector-curvature="0" class="fil0"/>
    <path id="_86978600" d="m34.236 47.327h-1.6111c0.8055-0.8056 1.8125-0.8056 3.4236-0.8056v0.4028c-0.806 0.202-1.007 0.403-1.813 0.403zm-0.4028-3.0209h1.2084c0.6041 0.6042 1.0069 0.4028 1.2083 1.2083-1.2083-0.4027-1.8125-0.2014-2.4167-1.2083zm3.0209-1.007c-1.2084-0.2013-1.2084-0.2013-1.6111-1.0069 1.0069 0.2014 1.0069 0.4028 1.6111 1.0069zm-0.4028-11.882c-0.8056 1.6111 0 1.6111 1.6111 1.6111l0.2014-1.0069c2.6181 0 3.0209 1.2083 4.0278 2.8194-0.6042-0.2013-0.6042-0.2013-1.4097-0.2013h-0.2014c-0.8056 0-1.007 0.4027-1.007 1.0069 1.4098 0 2.0139 0.2014 2.0139 1.8125v0.8056c0 0.6042-0.6041 1.2083-1.2083 1.4097-0.2014-0.6042-0.8056-1.4097-1.6111-1.4097h-0.8056c-0.8055 0-0.2014 0.2014-1.2083 0.4028v0.6041c1.4097 0 1.4097 0.4028 1.4097 2.0139-1.0069-0.2013-0.8056-0.8055-2.0139-0.8055h-0.8056c-0.6041 0-0.6041 0.4028-1.0069 0.8055-0.4028 1.007-3.0209 3.4237-3.0209 4.4306-0.2014 2.2153-1.4097 4.8334 1.007 4.8334h0.2014c1.2083 0 2.6181-1.6111 3.8264-2.2153l0.8056-0.2014c-0.2014-0.8055-0.6042-1.4097 0-2.0139 0.2013-1.4097 0.8055-2.4167 2.4166-2.4167 1.6112 0 1.6112 0.6042 3.2223 0.6042 1.2083-0.8056 2.4167-2.4167 2.4167-4.2292v-1.8125c0-3.0209-3.0209-7.2501-5.639-7.2501h-1.0069c-1.007 0-1.6111 0.2014-2.2153 0.4028z" inkscape:connector-curvature="0" class="fil0"/>
    <path id="_86978648" d="m123.05 46.521c1.007 0 1.8125 0.4028 2.4167 1.0069h-1.2083l-1.21-0.604v-0.403zm0.2014-1.4097h1.6111c-0.2013 0.6041 0 0.6041-0.8055 0.6041-0.6042 0-0.4028-0.2014-0.8056-0.6041zm-3.0208-1.007c0.4027-0.6042 1.2083-1.0069 2.2153-1.0069l-1.2084 1.2083-1.0069-0.2014zm-1.4098 1.007c2.4167 0 4.4306-0.4028 2.6181 1.6111l0.4028 0.6042 5.0347 2.2152v-3.625l-2.2152-3.8264-0.6042 0.2014v-0.8056c-0.6042-0.4027-0.8056-1.0069-1.6111-1.0069h-0.4028c-1.8125 0-1.4098 1.4097-3.2223 1.4097h-0.2014c-0.6041 0-0.8055-0.2014-0.8055-0.8055v-1.007c0-1.007 0.8055-1.2083 1.6111-1.4097-0.2014-0.6042 0-0.8056-0.8056-0.8056h-0.4027c-0.6042 0-0.6042 0.2014-1.2084 0.6042l-0.2014-0.2014 2.2153-3.8264-1.6111 0.2014c0-1.6112 1.4097-3.4237 3.2222-3.4237l0.4028 0.8056h1.007c1.6111-3.625-8.0556-3.0209-8.0556 5.4375v3.6251c0 4.0278 3.0208 2.8194 4.8333 4.0278z" inkscape:connector-curvature="0" class="fil0"/>
    <path id="_86978840" d="m103.92 47.528 1.6111 0.2014c-0.8056-0.6041-1.6111-0.6041-1.6111-1.8125 0-1.2083 0.8055-1.4097 2.0139-1.6111v-0.402l-1.2084-0.6042c-1.0069-0.4027-2.8195-0.4027-2.8195 0.8056v0.805c0 1.6111 1.007 2.0139 2.014 2.618z" inkscape:connector-curvature="0" class="fil0"/>
    <path id="_86978024" d="m144.4 47.73 1.8125-2.0139-0.4028-0.2014h-1.2083c-0.8056 0-1.8125-0.6041-1.8125-1.2083 0-0.4028 0-0.2014 0.2014-1.007 1.6111 0 3.0208-0.2013 3.4236-1.4097l0.2014 0.2014 2.2153-1.4097c-0.2014-2.6181-0.2014-4.2292-2.0139-5.0348h-0.4028c0 0.8056 0.2014 0.8056 0.2014 1.8125v0.2014c0 3.8264-6.2431 2.4167-6.2431 5.6389v0.6042c0 1.007 1.8125 1.2084 1.8125 3.8264h2.21z" inkscape:connector-curvature="0" class="fil0"/>
    <path id="_86977760" d="m12.688 45.716c0.2014 1.2084 1.6112 2.6181 2.8195 2.6181 1.007 0 0.4028-0.2014 1.6111-0.2014v-2.0139c0-0.8056 0.8056-0.6042 0.8056-2.0139 0-3.4236-4.4306-3.625-4.4306-5.8403v-1.6111c0-1.6112 1.6111-3.0209 2.6181-3.6251 0.4028-1.4097-3.0209 0.2014-3.6251 1.4098-0.8055 2.4167-2.4166 2.2153-2.4166 4.0278v0.4028c0 0.2013 2.2153 3.4236 2.4166 3.625 1.007 0.6042 3.6251 0.6042 3.6251 2.2153 0 0.6041-0.4028 0.8055-0.8056 1.2083l-2.618-0.202z" inkscape:connector-curvature="0" class="fil0"/>
    <path id="_86977040" d="m21.952 48.736c0.6042-0.2014 1.4097-0.4028 1.4097-1.2084v-0.2013c0-0.6042-0.4028-1.2084-1.2083-1.2084h-0.6042c-1.4097 0-1.2083 0.6042-1.8125 1.2084 0-1.4098 0.6042-2.2153 2.0139-2.2153 1.007 0 2.8195 1.2083 2.8195 2.2153 0 1.8125-1.8125 2.2152-3.6251 2.2152h-0.6041c-0.6042 0-0.6042 0-1.2084-0.2013l-1.2083-0.4028-2.8195 0.2014c-1.612 0.199-2.418-2.419-3.022-3.426-3.4238-2.417-9.0627 4.229-9.0627 4.833v1.4097c0 2.6181-0.4028 2.0139-0.4028 3.8264v0.2014c0 1.4098 4.8334 4.8334 5.4376 4.8334h0.4027l4.4306-0.6042c1.007-0.2014 1.6112 1.2084 1.007 2.4167l0.2014 0.4028-5.639 0.6042c0.6042 0.6041 2.6181 2.0139 3.6251 2.0139h1.4097c0.4028 0 3.2222-2.4167 3.2222-3.6251v-0.8055s-1.2083-2.8195-1.4097-3.0209h-1.4097c-0.8056 0.4028-2.6181 1.8125-3.625 1.8125h-1.007c-0.6042 0-4.4306-3.4236-4.4306-4.2292v-0.4027l0.8056-4.2292c0.4028-0.8056 2.8194-3.6251 4.2292-3.6251 1.8125 0 2.4167 1.2084 3.0208 2.4167 1.2084 1.8125 5.8403 1.8125 8.8612 1.8125 2.4167-0.2014 6.2431-3.0208 6.2431-5.6389l0.2014-0.2014-5.6389-2.6181c-2.2153 0-5.2362 2.4167-5.2362 4.0279 0 1.4097 2.8195 1.4097 4.632 1.4097z" inkscape:connector-curvature="0" class="fil0"/>
    <path id="_86978336" d="m14.702 55.785c-1.2083 0-0.8055 0.2014-1.8125 0.2014-1.6111 0-3.0208-1.0069-3.0208-2.8194v-0.4028c0-2.4167 1.8125-2.0139 2.8194-2.6181-0.6041-0.8055-1.2083-1.8125-2.618-1.8125-0.8056 0-2.8195 1.8125-3.2223 2.4167-0.4028 0.4028-1.2083 4.0278-1.2083 4.632v0.2014c0 1.4097 1.6111 1.6111 2.2153 2.2152 0.6041 0.8056 0.8055 1.6112 2.4167 1.6112 1.2083 0 4.2292-2.6181 4.4305-3.6251z" inkscape:connector-curvature="0" class="fil0"/>
    <path id="_86978576" d="m41.688 56.792h-0.6041c0.2014-1.6111 0.6041-1.007 0.6041-2.8195h0.6042v1.007c0 1.0069-0.4028 1.0069-0.6042 1.8125zm-2.0139-1.2083c0.4028-1.007 0.4028-1.8126 1.2084-2.4167 0 1.2083-0.2014 2.2153-1.2084 2.4167zm-2.2153-0.6042 2.2153-2.0139c-0.2013 1.2083-1.0069 2.0139-2.2153 2.0139zm0-8.4584c0.4028 1.2083 0.6042 1.0069 1.2084 1.8125h-0.8056c-0.6041 0-0.6041 0-0.8055 0.2014-2.0139 1.4097-2.4167 2.8195-5.639 2.8195-1.2083 0-1.2083-1.2084-2.2153-1.4098 0 2.6181 0.8056 4.0278 3.4237 4.0278h1.8125c2.0139 0 2.4167-1.0069 3.625-1.2083l0.2014 0.4028-4.4306 1.8125-0.2014-0.2014 0.2014 0.6042 2.4167 0.8055 0.6042 1.007 2.0139-0.4028h0.8055l-0.4027 0.2014 1.2083 2.0139c-0.4028 2.6181-2.0139 1.6111-3.4236 1.2083l-0.4028 0.2014 1.6111 2.2153c-0.8056 0.4028-2.8195 1.6111-4.0278 1.4097 0 0-4.2292-3.0208-2.6181 0.4028 0.8056 0.4028 1.6112 0.6042 2.8195 0.6042 5.2361 0 9.0626-4.4306 9.0626-10.271l-3.0209-4.2292-0.4028 0.4028c0.4028-1.2084 2.0139-2.8195 1.6111-4.4306-0.4027-1.4097-1.4097 0-4.2292 0z" inkscape:connector-curvature="0" class="fil0"/>
    <path id="_86976560" d="m127.68 56.389c1.007 0 1.8125-0.8055 1.8125-1.6111v-0.2014c0-0.8056 0-0.8056-0.2014-1.4097l-4.2292 0.4028-1.0069 1.8125c0.2014 0.2014 1.0069 1.0069 1.6111 1.0069h2.0139z" inkscape:connector-curvature="0" class="fil0"/>
    <path id="_86978888" d="m33.834 55.785-1.208-1.208-1.611-0.403h-0.806c-0.4028 0.4028-1.007 0.6042-1.007 1.4098 0 0.8055 1.2084 1.6111 2.2153 1.6111h1.007c0.8056 0 1.0069-0.4028 1.4097-0.6042v-0.806z" inkscape:connector-curvature="0" class="fil0"/>
    <path id="_86976128" d="m145.4 50.348h2.618c0.4028 0 2.0139 1.007 2.0139 1.8125v0.8056c0 3.4236-4.0278 1.4097-5.2361 1.2083l-0.2014 0.2014 1.6111 3.8264c0.4028 0.2014 1.2084 0.8056 2.0139 0.8056h1.007c1.6111 0 4.632-3.4236 4.632-5.4375v-1.4098c0-0.8055-0.6042-1.0069-1.2084-1.2083 0-2.0139-1.8125-2.4167-3.625-2.4167-1.007 0-3.0209 1.4097-3.625 1.8125z" inkscape:connector-curvature="0" class="fil0"/>
    <path id="_86977784" d="m122.44 56.389-1.8126 0.8056c0.4028 1.0069 5.0348 2.4167 5.8404 2.4167h1.8125c0.8055 0 1.4097-0.4028 2.0139-0.6042 0.6042-0.6042 2.6181-2.0139 2.6181-2.6181v-0.6042c0-1.6111-2.0139-2.4166-3.4237-2.8194 0.4028 1.2083 0.8056 0.6042 0.8056 1.6111v0.4028c0 1.4097-1.8125 2.4167-2.6181 2.4167h-1.2083c-1.007 0-1.6112-1.6112-3.6251-1.6112l-0.39 0.602z" inkscape:connector-curvature="0" class="fil0"/>
    <path id="_86976584" d="m29.202 59.209c0.4028 0.2014 1.2084 0.8055 1.6112 0.8055h0.6041c1.2084 0 2.0139-0.2013 2.8195-0.8055 1.007 0 0.6042 0.2014 1.2083 0.2014 1.4098 0 2.6181-1.007 3.4237-1.8125-0.8056-0.4028-0.6042 0.2013-1.6111 0.2013-1.007 0-1.6112-0.6041-1.8126-1.4097-1.6111 0-1.6111 1.4097-3.4236 1.4097h-0.4028c-1.6111 0-2.8194-0.6041-2.8194-2.2152 0-1.2084 0.8055-1.2084 1.2083-1.8126l-0.2014-0.2013c-2.0139 0-3.4236 1.2083-3.4236 3.0208v0.2014c0 1.6111 2.0139 1.2083 2.8194 2.4167z" inkscape:connector-curvature="0" class="fil0"/>
    <path id="_86977880" d="m130.3 59.41-1.2084 0.8055c2.6181 0 3.4237 0 4.8334-1.4097 1.2084-1.2083 3.2223-1.8125 3.2223-3.4236v-1.2084c0-1.2083-3.4237-1.6111-4.8334-2.4167h-2.02l-0.2014 0.6042c1.4097 0.8056 3.625 1.4097 3.625 3.4236v0.2014c0 1.4098-0.6042 1.6112-1.4097 2.0139-1.2084 0.6042-0.8056 0.8056-2.0139 1.4098z" inkscape:connector-curvature="0" class="fil0"/>
    <path id="_86977064" d="m145 50.146c1.0069-1.4097 2.8194-2.4167 5.2361-2.4167h0.6042c0.8056 0 3.8264 3.4237 3.8264 4.0278 0 2.8195 0 5.8404-2.8195 5.8404-0.4027 1.2083-1.2083 2.0139-2.618 2.0139h-0.2014c-1.6111 0-2.4167-0.6042-3.2223-1.2084-2.4166-0.6042-3.4236-0.2014-4.0278 2.4167 0 1.4097 1.8125 3.8264 3.6251 3.625l2.0139-0.4028c1.2083-1.2083-3.2223-0.8055-1.8126-2.8194 0.6042-1.007 4.0279-0.4028 5.2362-0.8056 1.4097-0.4028 6.4445-3.625 6.4445-5.4375v-3.625c0-0.6042-3.4236-4.2292-3.8264-4.4306-0.4028-0.4028-5.639-1.8125-6.2431-1.4098l-2.4167 2.6181h-2.6181c-1.4097 0.8056-1.4097 1.2084-3.8264 1.6111-0.8056 0-3.0209-0.2014-3.0209-1.6111v-0.4028c0-1.4097 1.2084-2.0139 2.8195-2.0139h0.4028c1.0069 0 1.6111 0.2014 1.6111 1.2084-0.6042-0.2014-1.4097-0.8056-2.4167-0.8056-0.6041 0-1.4097 0.6042-1.4097 1.4097v0.2014c0 0.8056 0.6042 1.007 1.4097 1.007h0.8056c1.2083 0 1.4097-0.2014 2.4167-0.4028 0-0.6042 0.2014-0.6042 0.2014-1.4097v-0.8056c0-1.4097-2.2153-1.4097-3.8265-1.4097l-6.0417 2.2153 0.2014 0.8055c1.2084 4.632 9.6668 4.4306 13.493 2.4167z" inkscape:connector-curvature="0" class="fil0"/>
    <path id="_86989064" d="m29 59.41c-1.4098-0.8056-3.4237-0.8056-3.4237-2.8195v-0.6042c0-0.6041 1.2084-1.2083 1.6111-2.4166l1.813-0.603c0-3.8264-6.2431 2.2153-6.2431 3.625 0 2.0139 1.6111 2.8195 3.625 3.0209l3.424 0.604-0.806-0.806z" inkscape:connector-curvature="0" class="fil0"/>
    <path id="_86989880" d="m39.875 67.667v-1.4098c2.2153-0.6041 3.4237 1.007 4.8334-1.0069 1.2083-1.4097 3.2222-2.2153 3.2222-3.8264 0-0.8056-0.6041-1.4098-1.0069-2.0139v-1.4098l-1.8125-1.6111h-1.007c-0.2014 1.4097-0.8055 2.2153-0.8055 3.8264 0 0.8056 0.8055 0.6042 0.8055 2.0139 0 2.0139-6.0417 1.4098-6.0417 4.0278v0.403c0 1.007 0.8056 1.007 1.8125 1.007z" inkscape:connector-curvature="0" class="fil0"/>
    <path id="_86989448" d="m50.75 77.334v-2.0139c0-1.2083 0-3.2222 1.007-3.2222h10.07l26.584 0.4027h11.882c6.6459 0 7.6529-1.8125 7.6529 4.632v1.8125c0 6.8473-3.8265 13.896-7.0487 17.722-2.8195 3.0208-10.472 8.8612-15.91 8.8612v-11.278h5.8403c-0.396 0.804-2.813 1.408-2.813 2.616v3.2222c3.625 0 11.882-6.6459 12.083-9.8681h-19.332v7.25c0 0.6042-0.2014 0.8056-0.8056 0.8056h-2.4167c-1.4097 0-0.8055-4.632-0.8055-6.0417 0-3.2223-1.007-2.2153-4.4306-2.2153h-13.695c0 2.8195 8.0556 9.8681 11.076 9.8681v-4.4306l-2.4167-1.6111h5.2362v11.479c-5.2362-0.2014-12.688-6.2431-15.306-9.4654-3.8264-4.4306-6.4445-10.472-6.4445-18.528zm11.681-11.278 33.632 0.2013 1.8125 2.4167-0.2013 0.2014-36.653-0.4028 1.4097-2.4166zm12.889-20.34v3.4237h1.007c0.6041 0 0.8055 0.2014 0.8055 0.8055v4.632h-13.896l0.2014-0.6042 7.25-3.625v-3.8264c-5.2361 0-18.528 9.8681-18.931 14.299l4.431-0.203 1.813-2.014 18.931-0.201v3.625h-16.514l-4.0278 6.0418 0.4028 0.2013h-4.2292v-1.0069l0.6042-2.4167h-3.2223c-1.0069 0 0 0-0.8055 0.2014-1.2084 2.0139-2.6181 8.4584-2.6181 12.083v0.2014c0 9.264 3.625 16.514 8.0556 21.549 3.4237 3.8264 12.285 10.875 18.931 10.875l2.8195 0.2013v-7.0486c0-0.6042 0.2014-0.6042 0.8055-0.6042h3.6251v7.6528h2.4166c0.8056 0 1.007-0.2013 1.8126-0.2013 6.8472-0.2014 14.903-6.4445 18.528-10.271 4.2292-4.0278 8.4584-12.486 8.4584-20.542v-5.2361c0-2.6181-2.0139-5.8403-2.2153-8.0556h-4.0278l0.4027 3.0208h-3.8264c-2.8194-4.0278-1.0069-6.4445-7.8542-6.4445-2.0139 0-13.292 0.6042-13.292-0.8055v-2.8195h18.528c1.6111 0 2.4166 1.6111 2.8194 2.6181h4.8334c-0.2014-4.2292-14.299-14.702-19.736-14.702v4.0278l0.2014-0.4028 8.0556 3.8264-0.2014 0.6042h-14.299v-5.2361h1.2084c0-5.8404-0.6042-4.2292-7.2501-4.2292v0.6041z" inkscape:connector-curvature="0" class="fil0"/>
    <path id="_86989088" d="m117.61 54.778v1.0069h-0.2014c0-1.0069-0.6042-1.2083-0.6042-2.618v-0.8056h0.6042l0.2014 2.4167zm0.6042-2.8195c0.8055 0.6042 1.4097 2.2153 1.8125 3.4237-1.007-0.8056-1.8125-1.8125-1.8125-3.4237zm3.625 2.0139c-1.6111-0.4027-2.2153-1.4097-3.0209-2.618 1.6112 0.4027 2.4167 1.4097 3.0209 2.618zm0.4028 2.0139 0.4028-1.0069c0.8055 0 1.4097 0 1.4097-1.007v-0.201c0-1.2083-1.2084-0.8055-2.0139-1.8125 1.0069 0.2014 3.625 1.007 4.632 1.007 0.8055 0 2.8194-1.2084 3.4236-1.6111l0.4028-2.2153c-0.8056 0.4027-0.6042 1.2083-2.0139 1.2083h-1.007c-1.4097 0-4.4306-2.4167-6.2431-2.8195h-1.2083l1.6111-1.8125h-1.4097c-0.6042 0.2014-0.6042 0.2014-1.4098 0.2014h-2.0139v1.007c0 1.4097 2.0139 1.8125 2.2153 3.625l-2.618 0.6042c-0.4028 1.2083-0.8056 1.6111-0.8056 3.4236v1.4097c0 12.688 13.292 10.875 10.875 5.8404-3.2223 0 0.6041 2.618-2.6181 2.618h-0.8056c-1.2083 0-2.8194-1.4097-3.2222-2.0139l2.0139-0.8055v-0.4028c-2.6181 0-3.8264-1.007-2.4167-3.0209l-0.4028 0.2014-0.8055-2.2153 0.2014-0.2014h3.8264z" inkscape:connector-curvature="0" class="fil0"/>
    <path id="_86990912" d="m15.306 56.591-1.0069 1.007h1.2083l1.2083 1.0069v1.6111c0.4028 0.2014 0.8056 0.4028 0.8056 1.007v0.8055c0 1.2084-0.4028 1.6112-1.4097 2.0139-0.8056 0.4028-0.8056 1.2084-1.4098 1.8126l1.4098 0.8055c0.4028-0.2014 0.8055-2.0139 2.0139-3.0208 1.0069-0.8056 2.0139-1.6112 2.0139-3.2223 0-1.2083-0.6042-1.8125-1.6111-2.0139 0-1.0069-0.4028-2.4167-1.4098-2.4167h-0.806c-0.6042 0-0.6042 0.2014-1.007 0.6042z" inkscape:connector-curvature="0" class="fil0"/>
    <path id="_86990288" d="m111.97 59.41v3.2222c0 4.0278 6.0417 0.4028 6.2431 4.632 0.6041-0.2014 1.2083-0.2014 1.2083-1.007v-0.6041c0-1.6112-4.632-1.8125-4.632-3.4237v-0.4027c0-1.007 0.4028-1.2084 0.8056-1.8126l-0.6042-3.2222c-1.4097 0-3.0208 1.2083-3.0208 2.6181z" inkscape:connector-curvature="0" class="fil0"/>
    <path id="_86989568" d="m3.8265 68.473c0.6041 0.4028 1.6111 2.0139 2.618 1.8125l2.6181-0.202c-0.2014-1.611-0.6042-0.604-0.6042-1.611v-0.4027c0-1.4098 2.0139-1.007 2.2153-2.2153l-2.618-2.0139c-1.8126 0-4.4306 2.0139-4.4306 2.8194v0.6042c0 0.6042 0 0.6042 0.2014 1.2083z" inkscape:connector-curvature="0" class="fil0"/>
    <path id="_86990096" d="m21.75 67.667c1.007 0.6041 2.0139 1.8125 3.4236 1.8125h1.8126l4.0278-0.6042 0.2013 0.4028 2.4167-3.8264-2.618-0.6042c-0.4028 1.8125-2.6181 3.4236-4.8334 3.4236-1.2084 0-3.2223-1.0069-3.2223-2.0139v-1.2083c0-1.4097 5.0348-3.0209 5.2362 0-1.2083-0.4028-4.4306-2.6181-4.4306 1.6111 8.6598 2.4167 6.8473-4.8333 1.8125-4.8333-2.0139 0-4.8333 1.4097-4.8333 3.2222v0.4028c0 1.0069 0.6041 1.6111 1.0069 2.2153z" inkscape:connector-curvature="0" class="fil0"/>
    <path id="_86990144" d="m36.452 67.466c0.6042 0.8055 2.6181 1.2083 2.6181 2.8194 0 1.4098-1.007 1.8126-1.2084 2.8195h2.0139c0.6042 0 2.0139-2.0139 2.0139-2.2153v-0.6042c0-0.6041-0.6041-1.0069-1.0069-1.4097l-1.8125-0.6042-2.6181-2.618h-1.6111l1.6111 1.8125z" inkscape:connector-curvature="0" class="fil0"/>
    <path id="_86989664" d="m133.32 67.466c4.0278 0 3.2223-3.0209 1.6112-3.0209h-1.61c-1.0069 0-0.8055 1.007-1.8125 1.4098-0.6041-1.2084 1.2084-2.2153 1.8125-2.2153h2.0139c0.8056 0 2.0139 0.6041 2.0139 1.4097v0.8056c0 2.0139-3.8264 2.618-5.8403 2.2153-3.4236-0.8056-2.8194-1.6112-4.2292-4.0279-4.0278 2.8195 2.2153 5.4376 5.4376 5.4376h1.8125c1.6111 0 5.4375-2.6181 5.4375-4.8334-0.6042-1.0069-3.8264-3.2222-5.4375-3.2222h-1.2c-3.4236 0-7.0486 6.0417 0 6.0417z" inkscape:connector-curvature="0" class="fil0"/>
    <path id="_86989784" d="m143.59 66.257c0.8056-0.2013 0.8056-0.4027 1.8126-0.4027h3.0208c1.2084 0 2.4167 1.0069 2.4167 2.2153 0 0.6041-0.2014 0.6041-0.4028 1.2083h0.8056c1.4097 0 3.4236-0.6042 3.4236-1.8125v-0.202c0-1.007-1.4097-1.007-2.0139-1.8125-0.8056-0.8056-0.6042-1.6111-2.2153-1.6111-0.8055 0-1.6111 0.4027-2.4167 0.6041-1.2083 0.6042-3.4236 0.4028-4.6319 0-0.8056-0.4028-2.2153-2.618-2.2153-3.2222v-0.8056c0-1.0069 1.4097-3.0208 3.4236-3.0208-0.2014-1.007-0.6042-0.8056-0.6042-1.8125v-1.4098c-1.2083 0-2.4167 0.4028-2.8194 1.4098-0.2014 0.4027-1.6112 2.8194-1.6112 2.8194l0.2014 1.007-0.4028 3.2222c1.4098 2.6181 1.8126 2.0139 4.2292 3.625z" inkscape:connector-curvature="0" class="fil0"/>
    <path id="_86974040" d="m121.84 66.66c-0.6042 0.4028-2.6181 3.625-2.6181 4.4306 0 1.6111 1.2084 2.4167 2.8195 2.6181 1.4097 0.4028 1.6111 1.2083 3.4236 2.2153 2.8195 1.2083-0.4028 7.0486 3.0209 7.0486 2.2153 0 2.8194-0.6041 4.2292-1.2083l0.2014-2.6181c-1.007-0.6041-2.0139 2.2153-3.6251 2.0139-2.618-0.2014 0.4028-2.8194 0.8056-3.2222-0.6042-6.8473-8.0556-4.8334-8.0556-7.2501v-0.8055c0-0.6042 0.4028-1.2084 1.0069-1.2084h0.8056c1.0069 0 4.632 3.2223 8.0556 3.2223l1.007-0.2014h3.625c2.0139 0 3.8264-2.6181 3.8264-5.0348-2.2153 1.6111-3.4236 3.625-7.2501 3.625h-0.2013c-1.2084 0-2.8195-0.8055-4.632-1.0069-1.4098-0.4028-2.4167-1.4097-2.6181-3.2222l-3.85 0.602z" inkscape:connector-curvature="0" class="fil0"/>
    <path id="_86973896" d="m9.4654 71.695c1.0069 0.4028 2.0139 1.0069 3.4236 1.0069 1.4098 0 1.8125-1.0069 2.8195-1.4097 1.2083-0.4028 2.2153-0.2014 2.2153-2.0139v-0.2014c0-0.8056-1.6111-1.8125-2.2153-2.2153-0.4028-0.2014-0.6042-0.4028-1.4097-0.4028h-2.4167c-1.007 0-2.8195 1.2084-2.8195 1.8125 0 1.2084 0.6042 1.8126 1.8125 1.8126h1.2084c0.6041 0 1.4097-0.8056 1.4097-1.4098 0-0.4028-0.2014-0.4028-0.6042-1.0069 1.007 0 1.6112 0.2014 1.6112 1.0069v0.6042c0 2.0139-5.0348 1.4097-7.0487 1.4097l2.0139 1.007z" inkscape:connector-curvature="0" class="fil0"/>
    <path id="_86972720" d="m118.42 74.313 2.2152-0.4028c-0.8055-0.8056-2.2152-1.007-2.2152-2.8195v-0.2014c0-0.8055 2.2152-3.625 2.8194-4.4306-0.4028 0-2.8194 1.2084-3.4236 1.4098-1.4097 0.8055-1.8125 1.6111-1.8125 3.4236 0 1.6111 1.4097 2.4167 2.4167 3.0209z" inkscape:connector-curvature="0" class="fil0"/>
    <path id="_86973440" d="m26.986 85.591-3.6251 1.8125 1.007 0.6042h2.2153c0.6041-0.4028 1.6111-1.007 2.4167-1.007 0.6041 0 1.2083 0.2014 1.2083 1.007 0 2.4167-0.8056 3.625-3.0209 3.8264-2.618 1.8125-7.25-1.4097-6.8472 4.632l-0.2014 4.0278c2.0139 3.0209 2.6181 2.2153 6.4445 2.2153 1.2083 0 4.8333 0.8056 4.8333 2.0139v1.2083c0 0.8056-1.8125 1.4098-3.0208 1.4098h-0.6042c-1.6111 0-2.6181-0.8056-2.6181-2.6181 0.6042 0.8056 1.007 1.6111 2.2153 1.6111h1.6112c6.0417 0-6.8473-6.8473-6.8473-0.2014v0.2014c0 2.6181 2.8194 2.0139 4.0278 3.4237 0.6042 0.4027 1.6111 0.8055 2.8195 0.8055 1.8125 0 7.8542-3.2222 8.0556-4.4306v-0.6041c-1.007-1.2084-1.6112-1.4098-2.6181-2.2153-1.6111-2.4167-5.6389-1.4098-9.0626-1.4098-1.8125 0-4.2292-2.2153-2.8194-4.6319l1.0069-1.2084c0-1.6111 1.007-2.4167 2.4167-2.4167h1.4097c2.2153 0 3.0209 1.6111 5.2362 1.6111h0.6042c1.4097 0 2.2152-1.0069 2.4166-2.4166v-1.209c-1.411-0.806-3.828-1.007-3.828-3.424v-0.6042c0-1.8125 2.8195-3.2222 4.632-2.0139 1.0069 0.2014 1.4097 0.8056 2.4167 0.8056h1.2083c0.8056 0 3.2223-3.2223 3.4237-3.8264-0.6042-1.2084-1.007-1.8126-2.8195-1.8126h-0.8056c-1.0069 0-2.618 1.007-2.618 1.8126v0.8055c0 0.8056 0.4027 0.6042 1.0069 1.007 1.6111 0 2.8195-0.4028 2.8195-1.8125-0.6042-0.2014-0.4028-0.4028-1.007-0.4028-0.6041 0-0.6041 0.2014-1.2083 0.4028 0.2014-0.6042 0.2014-0.8056 1.2083-0.8056h0.4028c0.8056 0 1.4097 0.4028 1.4097 1.0069 0 1.2084-1.4097 2.014-2.618 2.014l-3.0209-0.8056-0.2014-0.2014 1.2084-3.4236c-0.8056-0.2014-2.2153-1.007-2.2153-2.0139v-0.4028c0-1.6111 1.6111-2.6181 3.0208-2.6181h0.8056c1.6111 0 3.0208 0.6042 3.0208 2.2153 0 0.6042-1.6111 1.6111-2.618 1.6111h-0.6042c-0.8056 0-1.2084-0.6041-1.4097-1.2083 0.6041 0.2014 1.2083 0.6042 2.0139 0.6042 0.8055 0 1.8125-0.4028 1.8125-1.2084 0-1.0069-1.2084-1.6111-2.2153-1.6111-1.4098 0-3.2223 0.8055-3.2223 2.4167v0.2014c0 1.0069 1.4098 1.4097 1.8125 1.8125l6.8473-1.8125-0.2014-0.4028c0-1.4098-1.8125-3.2223-2.618-3.8264-1.4098-0.6042-4.2292-0.2014-6.0418-0.2014-0.4027 0.4028-3.0208 2.2153-3.0208 2.618 0 1.6112 2.0139 2.4167 2.0139 4.4306v1.007c0 1.0069-1.6111 1.8125-2.6181 1.8125h-0.2014c-2.2153 0-2.2153-0.6042-3.625-1.007v0.8056c0 1.007-0.4028 1.6111-1.0069 2.0139z" inkscape:connector-curvature="0" class="fil0"/>
    <path id="_86973584" d="m15.507 76.126c-1.8125 0.4027-2.4167 1.4097-4.8334 1.4097h-0.6041c-1.6112 0-2.8195-0.6042-2.8195-2.2153 0-1.0069 1.2083-2.2153 2.0139-2.2153h0.8056l-0.8061-1.208c-0.6042-0.403-1.0069-0.604-2.0139-0.604h-1.007c-1.2083 0-2.618 3.2222-2.618 4.4306 0 1.4097 3.8264 4.2292 4.4306 4.2292l4.0278-0.2014c1.6111 0.2014 3.625-3.4236 3.4236-3.625z" inkscape:connector-curvature="0" class="fil0"/>
    <path id="_86986112" d="m150.44 72.098-0.2014 0.8055c1.6111 0 2.8195 0.4028 2.8195 1.8125 0 1.6112-1.2084 3.2223-2.8195 3.2223h-2.0139c-0.6041 0-1.8125-0.6042-2.4167-0.8056-0.2014 0.6042 3.2223 3.8264 5.8404 2.6181 2.4166 0 4.6319-1.8125 4.6319-4.0278 0-0.8056-1.0069-1.8125-1.6111-2.2153 0-1.2083-0.2014-2.4167-1.2083-2.4167h-0.8056c-1.2083 0-1.4097 0.6042-2.2153 1.007z" inkscape:connector-curvature="0" class="fil0"/>
    <path id="_86987552" d="m16.313 76.327-2.6181 3.8264c1.8125-0.8056 3.4236-2.8195 6.0417-2.8195 1.8125 0 4.0278 0.4028 4.0278 2.4167 0 1.6111-2.0139 2.8195-3.625 2.8195-1.4098 0-3.0209-0.8056-3.0209-2.2153 0-0.4028 0.6042-0.6042 1.007-0.6042 0 3.4236 4.632 1.4097 4.632 0.4028 0-1.007-0.6042-2.0139-1.6112-2.0139h-1.4097c-2.0139 0-5.2361 1.2083-5.2361 2.8194v0.8056c0 1.2083 4.0278 2.8195 4.8333 2.8195 1.007 0 1.8125-0.4028 2.4167-0.8056 1.8125-1.6111 4.4306 0 4.4306-5.6389-0.2014-1.8125-1.4097-2.0139-3.2223-2.2153-2.4166 0-1.8125-1.007-3.8264-1.007h-0.202c-1.2083 0-1.8125 0.8056-2.618 1.4098z" inkscape:connector-curvature="0" class="fil0"/>
    <path id="_86971856" d="m26.584 78.542-0.2014 2.4166c1.2083 0.6042 3.2222 2.0139 4.632 2.0139h0.6041c1.007 0 2.0139-0.6041 2.0139-1.4097v-0.6042c0-2.0139-2.0139-2.8194-2.0139-4.6319 0-1.007 3.0209-2.2153 3.8264-2.6181 4.8334-3.2223 3.0209-2.8195 0.8056-6.0417-0.4028-0.4028-0.8056-1.007-1.6111-1.007-1.4097 0-1.6111 2.0139-3.2223 3.2223l-5.2361 0.4027h-1.007c-1.0069 0-3.4236-1.8125-3.625-2.2152l-1.4097-2.8195v-0.4028l-1.8125 2.6181 0.2014 0.2014c0.2013 0.2014 3.2222 3.2222 3.2222 3.2222 1.007 0.6042 1.2083 0.2014 2.4167 0.6042 0.8055 0.2014 1.4097 1.0069 2.0139 1.0069h0.8056c2.0139 0 1.6111-0.8055 2.618-1.2083 0.8056-0.4028 1.2084 0 2.8195-0.4028 1.0069-0.4028 3.8264-3.4236 3.8264 0.2014-2.8195 0.8056-5.6389 0.8056-6.6459 3.4236-2.4167 5.639 2.2153 2.6181 2.2153 6.2431l-0.202 0.203-5.035-2.417z" inkscape:connector-curvature="0" class="fil0"/>
    <path id="_86976512" d="m9.264 81.966c1.6111 0.2014 4.2292 1.8125 4.2292 3.2222v0.2014c0 2.0139-2.2153 2.8195-4.2292 2.8195h-1.2081c-1.007 0-3.2223-1.2084-3.2223-2.0139 0-1.6111 1.2084-2.6181 2.6181-2.6181h0.6042c1.0069 0 2.618 0.6042 2.618 1.2084 0 0.8055-0.2014 0.6041-0.6041 0.8055 0-1.0069-0.6042-1.6111-1.8125-1.6111h-0.6042c-0.8056 0-1.8125 0.6042-1.8125 1.4097v0.2014c0 1.007 0.8055 1.8125 1.6111 1.8125h2.4167c1.0069 0 2.618-0.8055 2.618-1.8125v-0.2014c0-2.2153-2.2152-2.4167-3.4236-3.2222-2.6181 0-7.0486 1.8125-7.0486 4.4306 1.2083 1.8125 4.8333 3.625 8.0556 3.625 1.4097 0 5.2361-2.0139 5.2361-4.4306-0.6042-0.6042-0.2014-0.8056-1.0069-1.8125-0.4028-0.6042-1.2084-1.007-1.2084-1.8125v-0.4028c0-0.8056 0.4028-1.007 0.6042-1.6111l-6.0417 0.6041-4.632-3.625c0-4.8333 0.4028-3.4236 2.6181-6.4445l-2.013-2.014c-1.8125-0.805-3.6251 1.611-3.6251 3.424v0.4027l0.6042 5.8404c0.2014 0.2014 3.0209 3.625 3.2223 3.625h5.4375z" inkscape:connector-curvature="0" class="fil0"/>
    <path id="_86977952" d="m133.12 79.146v2.0139c1.6112 1.2084 3.8265 4.4306 7.0487 2.8195 1.007-0.2014 3.8264-0.6042 3.8264-1.8125v-0.4028c0-1.8125-1.8125-2.6181-3.625-2.6181-1.2083 0-2.8195 0.4028-2.8195 1.6111v0.2014c0 0.8056 0.8056 1.007 1.6112 1.007 0.8055 0 1.2083-0.6042 1.8125-1.007-0.2014 1.007-0.6042 1.6112-1.8125 1.6112h-1.4098c-0.6041 0-1.4097-1.007-1.4097-1.6112 0-1.0069 1.8125-2.618 2.6181-2.618h1.8125c2.6181 0 3.625 1.6111 6.4445 1.6111l-2.2153-2.8195c-0.2014-0.2014-4.632-1.4097-5.0348-1.4097h-0.6042c-1.2083 0-5.4375 2.4167-6.2431 3.4236z" inkscape:connector-curvature="0" class="fil0"/>
    <path id="_86983232" d="m103.72 80.355c0-0.8056 0.2014-0.8056 0.2014-1.8125v-1.4098c0-1.4097-21.549-0.8055-24.368-0.8055-7.8542 0-16.715-0.2014-24.972-0.2014v4.0278h22.153v2.618h-21.347c0 1.8126 0.2014 3.8265 2.0139 3.8265h44.104c1.2083 0 1.8125-2.4167 1.8125-3.8265h-22.153v-1.6111c0-1.4097 19.736-0.8055 22.556-0.8055z" inkscape:connector-curvature="0" class="fil0"/>
    <path id="_86987096" d="m137.35 87.605 3.4237-0.2014c0.4028 0.4028 0.4028 0.6042 1.0069 0.6042h0.8056c1.2083 0 0.2014-1.4097 1.0069-2.4167l0.4028-1.0069-3.8264-0.2014c-0.4028 0.4028 0 0.4028-0.8056 0.4028h-1.8125c-2.4166 0-3.0208-2.6181-4.2292-2.6181-0.6041 0-1.2083 0.4028-1.2083 1.2083v1.007c0 2.0139 4.632 2.4167 5.2361 3.2222z" inkscape:connector-curvature="0" class="fil0"/>
    <path id="_86988536" d="m21.75 84.383c-0.6042 0.4028-0.8056 0.8055-1.8125 0.8055-2.0139 0-3.2223-0.8055-4.632-0.8055v0.8055c0 0.4028 0 0.4028 0.2014 0.6042 0.4028 1.007 0 2.2153 1.2083 2.2153h1.4098c0.6041 0 0.6041-0.2014 1.0069-0.6042 0.6042 0.2014 0.6042 0.2014 1.2084 0.2014 1.4097 0 2.0139-0.4028 2.4167-1.2083l3.8264-1.007c0.4028-0.6041 0.8055-0.8055 0.8055-1.8125v-0.202c0-1.2083-0.2014-1.6111-1.4097-1.6111-0.6042 1.8125-2.8195 1.6111-4.2292 2.6181z" inkscape:connector-curvature="0" class="fil0"/>
    <path id="_86973632" d="m40.48 89.014c-1.6111-1.2083-5.4375 0.4028-5.4375-1.8125v-1.0069l0.6041-0.4028c-1.2083-0.8056-3.0208 0.8056-3.0208 1.6111v0.6042c0 1.4097 1.2083 2.6181 2.8194 2.6181h0.6042c1.007 0 3.2223-1.4098 4.4306-1.6112z" inkscape:connector-curvature="0" class="fil0"/>
    <path id="_86992112" d="m144.6 66.66c-0.8056 0.2014-2.4167 1.2084-2.4167 2.0139v0.8056c0 1.0069 3.8264 3.0208 4.632 3.0208h1.6111c1.007 0 1.007-0.4027 1.8125-0.6041 0.4028-0.4028 1.4098-1.6112 2.0139-1.6112h0.4028c1.4097 0 2.0139 0.4028 2.6181 1.4098v1.2083c0.8055 1.2084 1.8125 1.2084 1.8125 3.4237 0 1.0069-1.4097 1.8125-2.0139 2.618-1.007 1.4098-1.2083 1.2084-3.4236 1.2084l-2.6181 0.4028-0.4028 0.6041c-2.4167 0.2014-3.2222 0.8056-3.2222 3.4237l-1.6112 1.0069c0 2.4167 4.2292 3.4236 6.6459 3.4236 3.2223 0 6.2431-0.2013 6.2431-3.625l-4.632-2.8194c-1.6111 0-4.6319 0.2013-4.6319 1.8125v1.0069c0 1.007 1.8125 1.8125 3.0208 1.8125 1.007 0 2.4167-0.6041 2.4167-1.6111 0-0.4028-1.007-1.0069-1.8125-1.0069h-1.007c-0.8055 0-0.2014 0.2014-1.4097 0.6041 0.4028-2.8194 5.0348-1.4097 5.0348 0.6042 0 1.007-1.007 1.8125-2.0139 1.8125h-1.6112c-1.6111 0-3.625-0.8055-3.625-2.4167v-0.4027c0-2.4167 4.8334-3.6251 6.4445-2.6181 2.6181 0 3.625-0.2014 4.2292-2.4167 0.6042-1.8125 1.8125-3.2223 1.8125-4.8334v-1.0069c0-0.4028-1.6111-4.0278-1.8125-4.4306-1.6111-1.6111-2.8195 0-4.8334 0l-4.2292 1.4097h-0.6041c-1.007 0-2.6181-1.0069-2.6181-1.8125v-0.4028c0-0.6041 0.2014-0.4028 0.6042-0.6041 0.2013 1.0069 0.6041 1.8125 2.0139 1.8125h0.8055c1.2084 0 1.8125-0.6042 1.8125-1.8125 0-0.8056-2.0139-1.6112-3.2222-1.6112h-0.4028c-1.0069 0-1.0069 0.2014-1.8125 0.2014z" inkscape:connector-curvature="0" class="fil0"/>
    <path id="_86992040" d="m123.05 85.39c0.6042 0.4028 1.6112 0.6042 1.6112 1.6111v0.6042c0 0.6042-0.8056 1.4097-1.007 1.4097l-3.625-0.4027c0.6041 0.8055 3.2222 2.618 4.2292 2.618 1.4097 0 2.618-1.2083 2.618-2.4166v-0.8056c0-2.2153-1.6111-2.6181-3.8264-2.6181z" inkscape:connector-curvature="0" class="fil0"/>
    <path id="_86974616" d="m26.382 88.813c0.6042 0 1.4097 0.2013 1.4097 1.0069v0.4028c0 1.0069-0.4028 0.2014-0.6042 1.4097 1.2084-0.4028 2.4167-1.2083 2.4167-2.6181v-1.4097c-1.4097 0-2.8194 0.2014-3.2222 1.2084z" inkscape:connector-curvature="0" class="fil0"/>
    <path id="_86992592" d="m131.1 91.23h2.0139c-0.6041-0.8055-1.0069-0.2013-1.0069-1.2083v-0.2014c0-1.0069 0.8056-0.8056 1.8125-0.8056-0.2014-0.8055-0.8056-0.8055-1.8125-0.8055-0.8056 0-1.8125 0.8055-1.8125 1.6111v0.4028c0 0.8056 0.4028 0.6042 0.8055 1.0069z" inkscape:connector-curvature="0" class="fil0"/>
    <path id="_86992520" d="m37.257 93.646 1.4097 1.4098c1.0069-0.4028 0.6042-0.8056 1.4097-0.8056h1.6111c3.0209 0 1.6112 3.2222 1.2084 4.8334 0.8055 0.4027 3.8264 2.4166 4.0278 3.0208 1.0069 2.0139 0.2014 3.2223 2.4167 4.632 2.0139 1.2083 2.2153 2.8195 4.0278 2.8195 5.2361 0.4027 1.0069 2.2153 3.8264 3.0208l-0.2014-0.2014 1.6111-4.0278c-0.6041-2.0139-8.6598-1.2083-8.6598-4.632v-0.2013c0-1.4098 0.6042-1.4098 0.6042-2.8195v-0.6042c0-2.0139-1.8125-2.6181-4.0278-2.6181 0.2014-0.8055 0.6042-0.8055 0.6042-1.8125v-0.2014c0-3.0208-1.2084-4.2292-4.2292-4.2292l-1.2084-1.8125c-1.8125 0-5.4375 1.6112-5.4375 2.6181v1.4097l1.007 0.2014z" inkscape:connector-curvature="0" class="fil0"/>
    <path id="_86992256" d="m107.94 104.32c-0.2014 0.6042-0.2014 0.4028-0.8056 1.007-0.6042 0.4027-0.4028 0.4027-1.007 1.0069-0.2013 0.8056-0.4027 1.007-1.4097 1.007h-0.8055c-1.4098 0-4.0279-2.2153-5.2362 1.4097l0.6042 1.007 1.0069 2.8194h-0.2014c1.6112-1.0069 0.8056-1.4097 1.6112-2.6181 1.2083-1.6111 1.8125-0.2013 3.2222-0.2013h1.007c1.2083 0 1.8125-1.4098 1.8125-2.6181 4.6319-0.4028 2.2153-5.2362 3.8264-6.4445 1.6111-1.2084 1.4097 1.2083 3.4236-0.4028 2.4167-1.8125 0.6042-2.0139 0.6042-3.0208v-1.211c0-2.2153 1.6111-1.0069 3.8264-2.6181l0.2014-0.4027 3.4236 1.4097-1.0069-3.0209c-0.2014-0.4027-2.2153-2.0139-2.6181-2.0139h-1.0069c-2.6181 0-1.4098 1.4098-4.8334 2.2153-2.2153 0.6042-2.2153 2.0139-2.2153 4.8334-1.8125 0.4028-3.625 0.8056-3.625 3.2222v0.4028c0 0.4028 0.8055 1.4097 0.8055 3.2223 0 0.6041-0.2014 0.6041-0.6041 1.0069z" inkscape:connector-curvature="0" class="fil0"/>
    <path id="_86990528" d="m23.764 96.265v0.6042c-0.6042 0.2014-0.6042 0.2014-1.0069 0.6041 0 3.2223 1.0069 3.6251 4.2292 3.6251-0.6042-0.6042-1.8126-1.6112-1.8126-2.4167 0-3.0209 3.4237-2.6181 6.4445-2.6181-0.8055-0.8056-3.2222-1.6111-5.0347-1.6111h-0.4028c-1.4097 0-1.8125 0.8055-2.4167 1.8125z" inkscape:connector-curvature="0" class="fil0"/>
    <path id="_86990864" d="m138.96 100.7c0.8055 1.0069 5.0347 3.0208 6.8472 3.0208h0.6042c1.2084 0 2.2153-0.6041 3.0209-1.0069 0.6041-0.4028 1.0069-0.6042 1.0069-1.6111 0-1.8125-1.6111-3.2223-3.625-3.2223h-1.2084c-1.0069 0-1.8125 0.4028-1.8125 1.4098 0 1.4097 1.4098 1.8125 2.8195 1.8125 1.8125 0 1.2083-0.8056 2.0139-1.4098 0 1.4098-0.2014 2.2153-1.8125 2.2153h-1.2084c-1.4097 0-2.8194-1.0069-2.8194-2.618 0-1.6112 2.2153-2.4167 4.0278-2.4167 2.0139 0 4.4306 1.8125 4.4306 3.625v0.4028c0 1.2083-0.6042 1.6111-1.2084 2.0139l-7.0486 2.0139v-0.2014l1.6111 0.6042c5.0348 1.2083 1.4097 0.8055 6.6459 0.2014 2.2153-0.2014 4.2292-1.8126 4.2292-4.0279 0-0.4027-2.8195-5.0347-3.0209-5.2361-0.6042-0.6042-5.6389-1.8125-6.6459-1.8125-2.4166 0-7.8542 2.6181-6.8472 6.2431z" inkscape:connector-curvature="0" class="fil0"/>
    <path id="_86991080" d="m15.306 104.52 2.8195-1.8125v-0.4028c-2.0139 0-1.6111 0.4028-2.4167 0.4028h-0.8056c-3.0208 0-7.25-0.6042-7.25-3.625v-0.4028c0-1.6111 2.8194-3.2223 4.8333-3.2223 5.4376 0 5.2362 4.632 2.2153 4.632h-2.0139c-0.8055 0-2.4166-1.4097-1.0069-2.6181 0 1.4098 0.4028 1.8126 1.8125 1.8126h1.007c2.4166 0 1.4097-3.0209-0.6042-3.0209h-1.8125c-1.007 0-3.0209 1.4097-3.0209 2.4167v1.0069c0 1.4098 3.625 2.6181 4.8334 2.6181h1.6111c1.007 0 4.632-3.2222 4.632-5.4375-0.8056-1.4098-4.632-3.4237-6.6459-3.4237-3.8264 0-9.6667 3.6251-9.6667 6.4445v1.6111c0 0.8056 5.6389 4.632 5.6389 4.632 2.4167 0 4.0278-1.2083 5.8403-1.6111z" inkscape:connector-curvature="0" class="fil0"/>
    <path id="_86991224" d="m119.42 74.716-4.632 3.0209-0.2014 0.8056 4.632 2.4166 2.0139 0.4028c0.4028 0 2.0139-1.2083 2.0139-2.4167v-0.4027c0-1.007-0.6041-1.8126-1.4097-1.8126h-1.6111c-0.6042 0-1.4098 0.8056-1.4098 1.4098v0.2014c0 0.8055 0.6042 1.0069 1.2084 1.4097l1.8125-0.4028c-0.4028 0.6042-1.007 0.8056-1.8125 0.8056-1.007 0-2.2153-0.8056-2.2153-1.8125 0-1.2084 1.4097-2.2153 2.6181-2.2153h0.8055c1.6111 0 2.8195 1.2083 2.8195 2.8194v0.2014c0 1.4098-1.2084 2.2153-2.2153 2.6181 0 1.4097 0.2014 3.0209-1.8125 3.0209h-0.4028c-1.2083 0-1.8125-0.6042-2.0139-1.8126 0.4028 0.6042 0.6042 1.007 1.2083 1.007h1.4098c0.6041 0 1.0069-0.4028 1.0069-1.007v-0.2014c0-1.4097-2.2153-1.2083-3.625-1.2083l-2.2153 0.6042 0.2014 0.4028c-1.2084 1.8125 3.0208 3.8264 3.8264 3.8264h1.007c0.8055 0 1.8125-1.6111 3.4236-1.6111h1.0069c1.4098 0 2.8195 1.2083 2.8195 2.618v1.6111c0 4.4306-6.4445 1.2084-4.632 5.2362l2.0139 1.0069c3.8265 0 3.8265-1.6111 6.2431-1.6111h1.4098c1.0069 0 2.618 1.007 2.618 1.8125v0.6042c0 0.8056-0.2013 0.8056-0.4027 1.4097 0.4027 0.6042 1.4097 1.2084 1.4097 1.8126 0 1.4097-0.8056 3.0208-1.8125 3.0208h-0.6042l-4.2292-0.4028-2.0139 1.4098c-2.6181 0-3.8264 0.4027-4.8334 2.0139l0.2014 2.618c0.6042 0.4028 4.632 2.0139 5.4376 2.0139h4.8333c1.8126 0 4.0278-1.6111 4.0278-3.4236v-0.4028c0-1.0069-1.4097-1.8125-2.0139-2.0139-2.0139-1.0069-5.2361-0.2014-5.2361 1.8125 0 0.6042 0 0.2014 0.2014 1.007 0.6042 0 0.6042 0.2014 1.2083 0.2014h1.2084c1.2083 0 1.6111-0.6042 1.8125-1.8125 0.4028 0.4027 0.4028 0 0.4028 0.8055v0.4028c0 1.2083-2.0139 1.6111-3.0209 1.6111-1.4097 0-3.2222-0.8055-3.2222-2.0139 0-2.0139 1.6111-2.8194 3.4236-2.8194h2.0139c1.007 0 1.007 0 1.4097 0.4027 2.4167 0 4.4306-0.8055 3.0209-2.8194l0.2014-4.2292c-3.4237-0.8056 0.8055-5.0348-8.257-5.0348l-1.2084-1.0069c0-1.2084 0.8056-3.0209 2.0139-3.0209h0.6042c0.8056 0 2.4167 0.6042 3.0209 0.8056l1.8125-0.4028c-2.0139-1.4097-5.4376-0.8056-5.4376-4.632-0.6041 0-0.6041 0.2014-1.2083 0.2014h-2.2153c-1.007 0-2.8195-1.2083-2.8195-2.4167 0-0.6041 1.007-2.2153 1.007-3.2222 0-1.2084-0.8056-1.6111-1.6111-2.0139-1.007-0.4028-1.4098-0.8056-2.2153-1.4098l-2.8 0.199z" inkscape:connector-curvature="0" class="fil0"/>
    <path id="_86991704" d="m57.195 106.54c-0.4028-1.0069-2.6181-1.4097-3.625-2.0139-1.4098-0.8056-1.8125-2.4167-2.6181-3.0209-0.2014 0.6042-0.2014-0.2013-0.2014 0.8056v1.4097c0 1.007 1.6111 1.8126 2.4167 2.2153 1.2083 0.8056 2.8195 0 4.0278 0.6042z" inkscape:connector-curvature="0" class="fil0"/>
    <path id="_86991008" d="m138.15 107.34c0 2.0139 0.4028 2.0139 1.6111 2.8194 1.007 0.8056 0.8056 1.8125 2.4167 1.8125h0.6042c0.6042 0 0.6042-0.2013 1.0069-0.4027v-0.6042l0.6042-0.2014c-0.6042-1.4097-2.6181 0.8056-3.4236-3.0209 1.4097-2.8194 3.8264-0.8055 3.4236-2.2152-0.8056-0.2014-1.2083-0.4028-1.6111-0.4028-2.8195 0-3.8264 0.4028-4.632 2.2153z" inkscape:connector-curvature="0" class="fil0"/>
    <path id="_86991536" d="m105.93 106.13c0.4027-0.8055 1.0069-1.6111 1.8125-2.0139l-0.6042-4.2292c-1.007 0.8056-0.6042 2.4167-2.0139 4.0278-1.4097 1.8125-3.4236 1.8125-3.8264 2.4167l2.8194 0.4028 0.8056-0.2014c0.6042 0 0.6042-0.2014 1.007-0.4028z" inkscape:connector-curvature="0" class="fil0"/>
    <path id="_86990552" d="m37.257 106.54-1.2084 1.4097v0.6042l2.6181-1.4097c-0.202-0.6-0.403-0.6-0.403-1.2v-0.6041c0-0.8056 0.2014-0.4028 0.6042-0.8056l-2.8195-1.6111h-0.8055c0.4027 0.6042 1.0069 1.0069 1.6111 1.6111 0.2014 0.2014 1.4097 2.0139 0.4028 2.0139z" inkscape:connector-curvature="0" class="fil0"/>
    <path id="_86991680" d="m129.29 95.459c2.0139 0 3.8264 1.2084 3.8264 3.4237 0 1.6111-0.8055 1.8125-2.618 1.8125s-3.0209 0.8055-3.6251 0.8055c-0.6041 0-0.8055-0.6041-1.4097-0.6041-1.6111 0-3.2222 1.0069-3.4236 1.8125l-3.2223 1.0069c0.2014 1.2084 0.4028 1.007 0.4028 1.6112 0 2.4166-1.0069 2.0139 1.4097 3.0208h1.8126c-0.2014-1.2083-1.007-0.8055-1.007-2.2153 0-3.0208 3.0209-3.4236 6.0417-3.4236 0.4028-0.6042 0.8056-1.2084 2.0139-1.2084h1.007c1.4097 0 1.6111 0.4028 2.618 0.4028 0.8056 0 2.2153-1.0069 2.2153-1.8125v-1.0069c0-0.6042-0.6041-0.8056-0.8055-1.2084 0-2.4167-0.8056-3.4236-3.2223-3.4236-1.2083 0-2.4166 0.4028-3.0208 1.0069h1.0069z" inkscape:connector-curvature="0" class="fil0"/>
    <path id="_86990768" d="m113.99 109.56c-1.007 0-1.6112-0.6042-2.0139-1.2084l4.4306 1.007-2.4167 0.2014zm-0.8056-3.0209v-0.4028h0.8056c1.0069 0 1.6111 0.2014 2.0139 0.8056l-2.8195-0.4028zm-2.2153 4.2292 2.0139-0.2014-0.6042 1.8125 1.007 1.2084 2.6181 0.6041 0.4028-0.2014 1.8125-4.2291-0.6042-0.2014c2.0139-0.6042 0.6042-2.2153 0.6042-2.8195-0.2014-3.625-0.2014-1.007-0.8056-3.2222l-0.4028-0.6042 4.2292-2.2153 0.4028 0.4028-1.2083-1.4098-0.4028-0.2014 4.8333-1.4097v0.2014c0.4028 3.625 4.2292-1.2083 0.2014-1.2083h-1.2083c-6.6459 0-13.493 7.25-13.493 13.694h0.6042z" inkscape:connector-curvature="0" class="fil0"/>
    <polygon id="_86974352" points="144.4 110.76 143.79 110.97 143.79 111.57 144.2 111.57 144.6 110.97" class="fil0"/>
    <path id="_86974376" d="m41.486 109.56c0.6041-1.007 2.8194-1.2084 4.4305-1.2084-0.8055 1.007-2.2153 1.2084-3.625 1.2084h-0.806zm3.8264-3.8265c-0.6042 0.8056-1.4098 1.2084-2.6181 1.2084l-1.8125-0.2014 4.4306-1.007zm-6.2431-1.0069-0.4028 4.0278 2.8195 3.625 0.4027-0.4028v1.007l2.8195-0.4028c0.4028-0.2014 0.8056-0.4028 0.8056-0.8055 0-0.4028-0.4028-0.2014-0.4028-1.007 0-0.6042 1.6111-0.8056 2.2153-0.8056 2.4167-4.8333-6.0417-13.09-11.681-13.09h-0.4027c-1.6112 0-4.0279 0.2014-4.2292 1.4097-1.007 3.0209 2.618-0.4028 2.618-0.4028h0.2014c1.4098 0 1.4098 0.4028 2.6181 0.4028v0.4028l-1.8125 1.4097c0.8055 0 1.0069-0.2014 1.8125-0.2014h1.0069c2.014 0 3.4237 2.0139 3.4237 4.2292l-1.8125 0.6042z" inkscape:connector-curvature="0" class="fil0"/>
    <path id="_86974400" d="m16.715 104.72c1.007 0.2014 1.6112 0.6042 1.6112 1.4097v0.4028c0 1.2083-1.007 2.4167-2.0139 2.4167-1.6112 0-2.6181-0.8056-4.4306-0.8056-1.2084 0-1.8125 0.8056-2.0139 1.6112-0.4028 1.4097-1.007 2.2152-1.007 2.618v1.2084c0 1.2083 0.6042 1.6111 1.2084 2.0139 0.8055-1.007 0-1.4098 1.4097-2.6181 0.8056-1.007 0.8056-1.4097 2.0139-2.2153 4.632 0 3.4236 0.4028 6.2431-1.4097 2.8195-2.0139 1.8125-1.6112 1.8125-5.639-0.6042-0.4027-1.2083-0.8055-2.2153-0.8055-1.6111 0-2.6181 0.8055-3.625 1.6111l1.0069 0.2014z" inkscape:connector-curvature="0" class="fil0"/>
    <path id="_86974208" d="m144.6 110.97-0.4028 0.6042h-0.4028l1.2084 0.2014c0.8055 0.6041 2.4167 1.6111 2.4167 2.618v0.8056c0 0.8056-0.2014 1.0069-0.2014 1.8125l1.8125-1.4097 0.2014-2.0139-1.2084-2.8195c-0.2014-0.4028-0.2014-0.6042-0.8055-0.6042h-1.007c-1.0069 0-1.2083 0.4028-1.6111 0.8056z" inkscape:connector-curvature="0" class="fil0"/>
    <path id="_86973728" d="m69.681 115.6-0.8056 0.4028-2.2153 1.8125 0.2014 0.2014c0 1.6111 4.2292 5.0347 5.4376 5.0347 3.2222 0 4.6319-0.4028 5.8403-2.4167 0-1.8125-1.4097-3.4236-2.8195-3.4236h-2.2153c-1.0069 0-1.6111 1.0069-1.6111 1.8125 0.2014 0.8056 0.8056 1.6111 1.6111 1.6111h1.2084c1.0069 0 1.4097-1.2083 1.8125-1.8125 0 2.0139-0.2014 2.6181-2.2153 2.6181h-0.4028c-1.2083 0-3.0208-0.8056-3.0208-1.8125v-1.007c0-3.4236 8.257-3.625 8.257 1.4098v0.4027c0 3.6251-4.2292 1.6112-5.4376 4.8334 2.2153 0 2.2153-1.2083 3.8264-1.2083h3.4237c1.8125 0 2.0139 0.8055 3.625 1.0069l0.2014-0.2014-3.2223-2.2153c-0.8055-0.4027-1.6111-1.2083-1.6111-2.2153 0-2.618 2.6181-3.625 5.2362-3.625 1.0069 0 3.0208 1.007 3.0208 2.6181 0 1.2083-0.8055 2.0139-2.0139 2.0139h-0.6041c-1.4098 0-2.4167-0.4028-2.6181-1.8125 1.2083 1.2083 4.2292 1.8125 4.2292 0 0-1.4098-1.6111-1.8125-2.8195-1.8125h-0.6042c-1.2083 0-3.0208 1.4097-3.0208 2.618 0 1.2084 0.6042 1.4098 1.2083 2.0139 2.2153 0.2014 2.4167 1.2084 4.4306 1.2084h1.2084c1.0069 0 2.2152-1.6111 3.0208-2.0139 0.6042-0.6042 1.4097-1.007 1.4097-2.2153v-0.4028c0-2.4167-3.4236-2.6181-5.0347-3.8264l-6.6459 0.8056v0.2013h-0.6042c-1.4097 0-2.618-1.6111-4.2292-1.6111h-2.8194c-0.8056 0-2.0139 0.8056-2.6181 1.007z" inkscape:connector-curvature="0" class="fil0"/>
    <path id="_86990408" d="m68.876 116 0.8056-0.4028 4.0278-2.0139 0.2014 0.2014v-0.4028l-0.2014-0.4028-4.632 0.2014c-3.0208-5.6389-3.2222-1.2084-6.0417-1.2084h-0.4028c-2.2153 0-2.4166-2.4166-3.4236-3.8264l-1.6111 5.0348 0.4028 0.4028 6.4444 1.4097c1.6112 3.0209-2.2152 1.2083-3.2222 1.6111-1.8125 0.8056-0.4028 2.4167 2.4167 2.4167l-0.2014 0.8056 4.4306 1.8125 0.2014-0.4028c-0.4028-1.007-1.8125-1.4097-1.8125-2.4167v-0.8055c0-1.4098 1.4097-2.8195 2.618-2.0139z" inkscape:connector-curvature="0" class="fil0"/>
    <path id="_86974448" d="m50.75 117.01h0.6042v2.0139c0 1.007-0.4028 1.2083-0.8056 1.6111l-0.201-1.4 0.403-2.22zm1.8125-0.2014c0.4028 0.2014 1.007 1.6111 1.007 2.0139v1.8125l-0.6042-0.8055-0.4028-2.2153v-0.8056zm2.0139-0.4028c1.007 0.6042 1.8125 2.0139 1.8125 3.4237-1.0069-0.2014-1.8125-1.8125-1.8125-3.4237zm-6.8472 3.4237c0-1.2084 1.0069-2.8195 1.8125-3.4237-0.2014 1.6112-0.8056 2.8195-1.8125 3.4237zm0.2013-9.264h-0.6041l-1.8125 0.2014 1.4097 1.4097-1.8125 0.6042-10.875 2.4167 0.2014 0.8056c3.625 0 5.0348 1.0069 7.0487 1.0069h0.4027c2.0139 0 3.0209-0.6042 4.632-0.8056l0.2014 0.4028-4.2292 1.2084c0.6042 0.8055 0.6042 0.2014 1.2083 1.2083 0.6042 1.007 0 0.6042 0.6042 1.8125 1.007 1.4098 2.2153 0.6042 3.625 0.4028l-0.2013 0.6042 3.0208 0.6041h3.2223l3.4236-0.6041c1.0069 0.8055 1.6111 1.4097 1.6111 3.0208 0 1.6112-1.4097 1.4098-1.8125 2.6181l3.625-0.8056-1.0069 5.4376-1.007 0.2014c-0.8055 0-0.8055 0.2014-0.8055 1.0069v0.6042c2.8194 3.625 4.4305-6.4445 4.6319-6.8473 0-3.8264-1.4097-6.4445-3.2222-8.6598-1.007-1.2083-1.8125-2.0139-3.2223-2.8194-2.8194-1.6112-2.2152 0-4.4305 0h-0.2014c-3.6251 0-0.6042-3.0209-0.4028-5.4376l-3.2223 0.4028z" inkscape:connector-curvature="0" class="fil0"/>
    <path id="_86974304" d="m86.799 114.99c2.2153 0.4028 5.6389 1.2083 5.6389 4.0278v0.4028c0 1.4097-1.0069 2.0139-2.0139 2.4167 1.6111 1.0069 7.6528-3.0209 6.6459-5.0348l-2.8195-0.8055v-1.007l3.625-0.6042 0.4028 0.2014 1.007-4.8333-0.6042-1.007c-0.6042 0.8056-1.2083 2.2153-2.8195 2.2153h-1.4097c-3.8264 0-2.0139-1.8125-4.0278 2.6181l-5.0348 0.4027 0.2014 0.4028 1.2084 0.6042z" inkscape:connector-curvature="0" class="fil0"/>
    <path id="_86975240" d="m35.445 121.84v1.2083c1.007-0.6042 1.2084 0 1.2084-1.4097l-0.4028 0.8055h-0.402l-0.403-0.61z" inkscape:connector-curvature="0" class="fil0"/>
    <path id="_86974880" d="m121.84 119.42c-1.007 1.2083-3.2223 1.8125-3.2223 3.0208v0.2014c0 2.4167 2.8195 1.2084 2.8195 3.6251v0.6041c0 0.8056-0.4028 0.8056-1.0069 1.007v2.0139h0.8055c0.8056-0.4028 3.0209-3.625 3.0209-4.632v-0.4028c0-0.8055-4.0278-4.2292-0.6042-4.2292h1.4097c1.007 0 2.2153 0.8056 2.2153 1.6112v1.0069c0 0.6042-0.2014 0.6042-0.4028 1.2083 3.2223-0.6041 2.2153-1.8125 4.2292-3.0208l1.6112-3.4236c-2.6181-1.4098-8.6598-0.2014-10.875 1.4097z" inkscape:connector-curvature="0" class="fil0"/>
    <path id="_86974808" d="m76.73 130.5v-0.8056c0.4027-0.6042 0.8055-1.2083 2.0139-1.2083h0.2014c2.2152 0 1.6111 0.4027 2.618 1.2083 0.2014-0.2014 0.6042-0.6042 0.6042-0.8056 0-1.2083-1.2083-2.0139-2.4167-2.0139h-1.6111c-0.8056 0-2.2153 0.8056-2.2153 1.6112v0.4027c0 1.007 0.2014 1.2084 0.8056 1.6112z" inkscape:connector-curvature="0" class="fil0"/>
    <path id="_86974952" d="m10.674 116.4c0.6042 1.6112 3.6251 4.4306 5.639 4.4306 2.4166 0 3.2222-1.4097 5.2361-1.4097 2.2153 0 5.0348 1.0069 5.0348 3.2222v0.6042c0 1.4097-1.2084 2.0139-2.8195 2.0139-2.6181 0-3.0208-0.8056-3.0208-3.4236 0.6041 1.2083 0.2013 2.618 2.2152 2.618h1.4098c0.6041 0 1.2083-0.6041 1.2083-1.2083v-0.6042c0-1.4097-1.8125-2.618-3.0208-2.618h-0.8056c-1.2083 0-6.2431 2.2153-6.2431 3.2222v0.8056c0 2.618 7.4514 7.0486 10.271 5.8403 1.8125-0.8056 4.632-1.007 6.0417-2.4167 2.2153-2.4167-0.8055-3.4236-0.8055-5.8403 0.8055-0.4028 1.2083-0.8056 2.4166-0.8056h0.2014c1.007 0 1.4098 0.4028 1.8125 1.007l0.4028 0.6041h0.4028l0.4028-0.8055c0 1.4097-0.2014 0.8055-1.2084 1.4097-1.4097 1.007-2.0139 1.8125-1.0069 3.625 0.8056 1.4098 0.8056 3.0209 2.8195 3.0209h0.6041c0.6042 0 2.8195-0.2014 1.2084-0.8056-1.007-0.4027-2.2153-1.4097-2.2153-2.8194 0-1.8125 2.8194-1.8125 2.8194-4.2292v-0.6042c0-2.0139-2.618-3.2222-4.6319-3.2222l-5.2362-0.4028v0.6041c-0.6042-0.2013-0.8055-0.6041-1.4097-0.6041h-0.6042c-1.0069 0-1.2083 0-1.4097 0.6041 1.2083 0.4028 3.625 3.8265 3.625 5.4376 0 2.2153-0.8056 2.6181-2.6181 3.2222-1.4097 0.4028-1.8125 1.2084-4.0278 1.2084-1.8125 0-5.0347-1.8125-5.0347-3.2223v-1.4097c0-0.6042 0.6041-1.007 1.0069-1.2083 0 0.6041-0.2014 0.6041-0.2014 1.2083v0.6042c0 1.8125 2.2153 3.2222 4.2292 3.2222h0.8056c1.4097 0 5.0347-2.0139 5.0347-3.8264 0-1.6111-2.0139-4.0278-3.0208-4.8334l-9.0626-1.0069c-1.2083 0.2014-3.0208-1.6111-2.2153-3.0209 1.007-1.2083 2.8195 0.2014 4.4306-0.4028 1.6111-0.6041 7.2501-2.8194 6.6459-4.2292l-3.8264-1.6111c-3.2223 2.0139-1.4097 2.8195-6.8473 3.0209-2.0139 0-4.632 3.0208-4.632 5.0347z" inkscape:connector-curvature="0" class="fil0"/>
    <path id="_86974976" d="m35.445 117.21c1.007 0.6042 5.2362 1.0069 5.2362 3.4236v0.8056c0 2.2153-2.8195 2.4167-2.8195 4.632v0.2014c0 1.6111 0.8056 1.8125 1.8125 2.4166l1.4098 2.2153c2.4167 0 1.8125-1.0069 3.4236-1.0069h1.4097c1.007 0 0 0.4028 1.4098 0.6042l-0.2014-0.2014 2.4167-1.8125 4.8333-1.6112v0.2014c-0.203-0.6-1.612-1.6-2.015-1.6h-0.403c-2.0139 0-1.0069 0.8056-4.2291 0.8056h-0.6042s-6.2431 5.2361-6.2431-1.007c2.2153-3.2222 3.4236-2.8195 1.0069-7.25l-6.445-0.81z" inkscape:connector-curvature="0" class="fil0"/>
    <path id="_86974832" d="m81.764 129.9c-1.0069 2.2153 0.8056 4.0278 3.2223 4.0278l1.6111 1.4097h1.8125l1.4097-0.4028c-0.4028-0.8055-3.0208-1.0069-4.2292-2.4166-1.0069-1.4098-2.8194-1.007-3.0208-3.8265l-0.806 1.2z" inkscape:connector-curvature="0" class="fil0"/>
    <path id="_86975888" d="m131.31 121.64c-0.6041 0.8055-1.2083 1.0069-1.2083 2.4167v0.8055c0 2.2153 3.4236 4.2292 5.6389 4.2292 1.8125 0 6.0417-1.4097 6.0417-3.0208v-0.2014c0-1.4098-1.2083-2.0139-1.8125-2.8195 1.2084 0.2014 2.6181 1.2084 2.6181 2.8195 0 2.4167-4.0278 4.0278-6.0417 4.0278h-1.2084c-1.8125 0-6.0417-2.2153-6.0417-4.0278v-1.4098l-2.4167 0.8056c-0.2013 0.2014-1.0069 1.007-1.0069 1.6111v1.2084c0 1.4097 7.25 4.0278 9.0626 4.0278h0.4027c3.8265 0 7.0487-2.6181 9.0626-4.632 3.0209-3.4236-4.2292-6.2431-5.8403-6.2431h-0.4028c-2.6181 0-4.8334 0.6042-5.2361 2.8195 0.2013 0.8055 0.6041 1.8125 1.6111 1.8125h2.2153c1.6111 0 0.8055-1.8125 1.0069-2.4167 0.4028 0.2014 0.8056 0.4028 0.8056 1.0069v1.007c0 1.2083-1.6111 1.6111-2.8195 1.6111h-0.4028c-1.4097 0-3.2222-1.2083-3.2222-2.6181v-0.8055c0-2.2153 3.4236-3.2223 6.0417-3.2223h0.2014c3.0209 0 3.2222 2.0139 6.2431 1.2084 3.2222-1.007 1.0069-3.2223 2.0139-4.632 0.8056-1.6111-0.2014-4.4306-1.8125-4.4306-2.4167 0-3.2223 1.007-4.632-1.0069-1.2083-1.4098-2.0139-1.4098-2.6181-3.6251-1.0069 1.2084-1.2083 2.6181-3.625 2.6181h-0.6042l-4.6319 0.2014c1.0069 1.4097 1.2083 1.8125 3.4236 1.6111 2.8195 0 1.2083 1.2084 3.4236 1.2084 3.6251 0 1.8125 1.4097 4.4306 1.4097 6.4445 0 4.2292 3.0209-0.8055 3.0209-5.4376 0-6.0418-0.2014-7.8543 3.625z" inkscape:connector-curvature="0" class="fil0"/>
    <path id="_86975480" d="m102.1 130.9c0.4028-0.2014 1.007-0.4027 1.8126-0.4027 1.0069 0 3.4236 0.6041 3.4236 1.6111 0 1.0069-0.6042 1.8125-1.6111 1.8125-1.007 0-1.007-0.2014-1.8125-0.4028v-0.4028h1.0069c0.6042 0 1.6111-0.4027 1.6111-0.8055 0-1.2084-2.8194-1.007-4.2292-1.007-0.6041 0.4028-1.2083 0.4028-1.2083 1.2084v0.6041c0 1.2084 2.8195 1.4098 4.4306 1.4098 0.6041 0 3.625-1.6112 3.625-2.4167v-0.6042c0-1.6111-3.8264-2.4167-5.4375-2.4167h-0.8056c-1.2083 0-3.4236 1.4098-3.4236 2.6181s2.0139-0.4028 2.618-0.8056z" inkscape:connector-curvature="0" class="fil0"/>
    <path id="_86975168" d="m105.53 119.02c0-0.8056 0-0.8056 0.4028-1.2083 0 0.8055 0.2013 0.8055 0.2013 1.8125v2.2153h-0.4027c-0.2-0.81-0.2-0.81-0.2-1.81v-1.007zm2.2153-1.2083 0.8055 1.0069v2.4167c-0.6041-0.6042-0.8055-1.6111-0.8055-2.6181v-0.8055zm-4.8334 2.0139c0-0.6042 0.6042-2.0139 0.8056-2.8195h0.4027l-0.2013 2.0139c-0.2014 1.007-0.6042 2.0139-1.007 2.6181v-1.8125zm-5.8403 5.6389 1.0069 9.0626 0.6042-0.2014h1.6111v-1.007l-2.0139-5.2361 0.4028-0.2014 1.8125 0.6042c-0.4028-1.007-0.8055-2.0139-0.8055-3.4237 0-1.2083 1.0069-2.0139 2.4166-2.0139 2.8195 1.8125-0.8055 1.2084 3.2223 1.007 2.4167-0.2014 0.2014 1.4097 3.2222-0.8056 3.8264 2.6181 1.6112-2.8195 5.639-3.625v-0.6l-3.0209-1.4097 0.2014-0.4028c1.0069 0.4028 1.0069 0.8056 2.6181 0.8056h1.8125c2.6181 0 4.632-2.2153 7.4514-2.4167v-0.4028c-0.8055-0.2014-0.8055-0.6042-1.8125-0.6042h-0.8056c-1.4097 0-1.8125 0.6042-3.2222 0.6042-1.8125 0-3.2222-0.4028-4.2292-1.4097-0.2014-0.2014-1.6111-1.007-1.6111-1.4098 0-0.6041 0.4028 0 0.6042-1.4097h-1.007l-3.625-0.2014 1.0069 3.8264c-0.6041 0.8056-1.0069 1.6111-2.4167 1.6111h-0.2013c-2.8195 0-2.6181-3.2222-6.2431 1.8126-1.2084 1.4097-2.6181 5.2361-2.6181 7.4514z" inkscape:connector-curvature="0" class="fil0"/>
    <path id="_86975528" d="m43.5 131.51c0.6041 0.2014 0.8055 0 0.8055 0.8056 0 0.6041-0.2014 0.6041-0.6042 1.0069l-2.0139 0.2014c1.2084 0.4028 1.4098 0.8056 2.8195 0.8056h0.8056c1.2083 0 1.8125-0.6042 1.8125-1.8125 0-1.007-1.007-2.0139-1.8125-2.0139h-0.8056c-1.0069 0-0.8056 0.2013-1.8125 0.4027l0.806 0.61z" inkscape:connector-curvature="0" class="fil0"/>
    <path id="_86975264" d="m69.681 134.13c0.4028 0.2014 1.2083 0.8055 1.6111 0.8055 1.4098 0 2.0139-0.4027 2.6181-1.4097 2.2153 0 2.2153-0.6042 2.2153-2.8195l-0.8056-1.0069c0 2.6181-1.0069 1.4097-2.4167 2.4167-2.2153 2.2153-1.6111 1.0069-3.2222 2.0139z" inkscape:connector-curvature="0" class="fil0"/>
    <path id="_86975384" d="m114.79 134.93c-0.6041-0.4027-1.0069-0.8055-1.0069-1.8125v-0.4027c0-0.8056 0.6041-0.4028 1.0069-1.8126h-1.6111c-1.0069 0.8056-2.0139 0.8056-2.0139 2.6181 0 0.8056 0.8056 1.4097 1.2083 1.6111l2.42-0.21z" inkscape:connector-curvature="0" class="fil0"/>
    <path id="_86976416" d="m72.702 137.95v0.2014c3.625-2.2153 2.2152-1.4097 6.8472-1.4097 1.2084 0 1.8125-0.6042 2.8195-0.6042 0.6042 0 2.0139 0.8055 2.6181 1.0069-0.4028-1.4097-1.4098-2.8194-3.4237-2.8194-1.0069 0-1.0069 0.6041-2.0139 0.6041-1.2083 0-1.0069-0.6041-2.0139-0.6041h-0.6042c-2.618 0-3.2222 1.8125-4.2291 3.625z" inkscape:connector-curvature="0" class="fil0"/>
    <path id="_86975696" d="m49.744 128.69c-0.6042 1.007-1.8126 1.2084-1.8126 2.2153 0 1.4098 3.2223 2.6181 4.632 2.6181 1.6111 0 2.6181-0.4028 2.6181-2.0139 0-1.2083-1.4097-2.0139-2.6181-2.0139-1.4097 0-2.0139 0.6042-2.0139 2.0139 0.6042 0.2014 0.6042 0.2014 1.2084 0.2014h0.8055c0.8056 0 0.6042-0.2014 1.007-0.8056v1.2084c-0.4028 0.2014-0.8056 0.4028-1.6112 0.4028-0.8055 0-2.0139-0.6042-2.0139-1.6112v-0.4027c0-0.8056 1.2084-1.6112 2.0139-1.6112h1.6112c1.4097 0 2.8194 1.6112 2.8194 2.8195v0.4028c0 0.8055-1.8125 2.2153-2.8194 2.2153-2.4167 0-4.0278-1.4098-5.639-1.8125 0 1.6111-0.8055 2.618-2.4166 2.618-1.6112 0-3.4237-0.6041-4.0278-1.6111-1.6112-0.8055-3.6251-2.0139-5.8404-2.0139-1.6111 0-2.618 0.6042-3.625 1.2084-0.8056 0.8055-3.8264 1.4097-3.8264 3.2222v0.8056c0 1.0069 3.4236 3.0208 4.632 3.0208h2.4167c1.6111 0 4.8333-2.0139 4.8333-3.8264 0-1.007-1.8125-2.0139-2.8194-2.0139h-1.2084c-1.8125 0-3.4236 0.2014-3.4236 2.0139 0 0.8056 0.8055 1.0069 1.2083 1.2083h1.6111c-0.2013 0.4028-0.4027 0.8056-1.0069 0.8056-1.6111 0-2.8195-0.8056-2.8195-2.2153 0-1.6111 3.0209-3.0208 4.4306-3.0208h1.007c1.4097 0 3.8264 1.6111 3.8264 3.2222v0.2014c0 2.2153-4.2292 4.4306-6.4445 4.4306 0.4028 0.4028 0.8056 1.0069 1.6111 1.0069 1.4097 0 4.2292-1.0069 5.0348-1.4097v-2.2153c0.8055-1.007 1.8125-2.6181 3.4236-2.6181h0.6042c2.4167 0 3.8264 2.6181 2.6181 4.4306-0.4028 0.6042-1.8126 2.0139-1.8126 2.6181v1.0069c0 2.0139 4.0278-1.4097 6.0417-1.4097h1.4098l3.0208 0.2014v-0.2014h2.4167v0.2014l4.632-0.6042c-1.2083 0-5.8403-1.8125-8.4584-1.8125-2.2153 0-4.8334 0.6042-4.8334-2.0139v-0.6042c0-2.0139 3.0209-0.8055 3.2223-0.8055h1.0069c0.4028 0 3.2223-1.8125 3.4237-2.2153l-0.6042-0.4028v-0.6042c0-1.0069 1.0069-1.0069 1.6111-1.4097 1.2084-2.6181-4.4306-4.0278-6.4445-4.0278-1.2083 0-2.0139 0.6042-2.618 1.0069z" inkscape:connector-curvature="0" class="fil0"/>
    <path id="_86975912" d="m65.25 136.94v-1.0069c0-3.0209 5.0348-2.0139 8.0556-4.4306 2.8195-2.2153 1.2084-6.2431 6.6459-5.6389 3.0209 0.4028 3.0209 3.8264 6.2431 6.2431 2.4167 2.0139 7.2501 2.2153 7.2501 5.4375v0.2014c0 2.2153-2.8195 4.4306-5.4376 3.625-2.6181-0.8055-2.8194-4.2292-5.4375-4.2292l-0.2014 0.2014-5.2362-0.2014h-0.2014c-3.4236 0-4.0278 3.2223-6.2431 3.8265-2.014 0.6-5.438-2.42-5.438-4.03zm-2.2153-9.2639v1.8125c2.2153 0.6042 2.4167 2.2153 6.0417 2.2153 1.2084 0 2.0139-0.6042 2.6181-1.007 0.4028-0.6041 1.4097-1.2083 1.4097-1.8125 0-1.2083-2.2153-2.618-3.4236-2.618h-1.2083c-1.007 0-2.6181 1.0069-2.6181 1.8125 0 1.4097 4.4306 2.8194 4.632-0.2014h0.4027v1.0069c0 0.8056-0.8055 1.4098-1.8125 1.4098h-1.8125c-0.6042 0-2.0139-1.2084-2.0139-1.8125v-0.8056c0-0.8056 1.8125-2.2153 2.4167-2.2153h2.6181c0.6041 0 3.625 2.0139 3.625 3.2222v0.8056c0 0.8056-1.2083 1.007-1.8125 1.4097-0.6042 0.8056-0.6042 1.4098-1.8125 1.4098h-1.6112c-1.4097 0-1.4097-0.6042-2.8194-0.6042h-0.8056c-0.4028 0-4.4306 3.2222-4.4306 4.4306v1.0069c0 0.4028 1.6112 3.2223 2.2153 3.6251 1.4098 0.8055 3.8264-0.2014 5.2362 0.6041 1.2083 0.6042 2.8194 2.4167 3.2222 2.4167h0.2014c2.6181 0 3.0209-4.4306 5.2362-4.4306h0.8055c1.007 0 0.8056 0.4028 2.0139 0.4028 2.4167-1.2083 3.4237-0.2014 4.4306 1.8125 2.0139 3.4237 3.2223 1.007 4.632 1.007 3.625 0 8.4584 0.8055 8.4584-3.625v-1.2084c0-1.0069-2.2153-4.0278-2.8195-4.8334l-4.8334-0.6041-1.0069-0.6042h-1.4097c-0.8056-0.6042-2.2153-1.007-2.2153-2.6181 0-2.2153 2.0139-3.2222 4.2292-3.2222h1.4097c1.6111 0 3.625 0.8055 3.625 2.6181 0 1.0069-1.4097 2.0139-2.618 2.0139h-1.007c-1.2083 0-1.4097-0.6042-2.0139-1.007v-1.4097c0.6042 0.8055 1.2083 1.6111 2.4167 1.6111 1.0069 0 2.2153-0.4028 2.2153-1.2083 0-1.6112-2.0139-2.2153-3.4237-2.2153-1.8125 0-3.8264 1.2083-3.8264 2.8194 0 2.4167 3.2223 2.0139 4.632 3.0209l6.2431-2.6181v-3.2222c-0.6042-0.8056-5.0348-2.0139-6.0417-2.0139h-2.0139c-1.2084 0-3.4236 1.6111-3.8264 1.6111-2.4167 0-3.6251-1.4098-5.0348-1.4098h-2.0139c-0.8056 0-2.0139 1.4098-3.2222 1.4098h-0.4028c-1.6111 0-2.8195-1.8125-4.4306-1.8125h-1.8125c-1.2084 0-4.8334 2.4167-4.8334 3.625z" inkscape:connector-curvature="0" class="fil0"/>
    <path id="_86975624" d="m42.896 140.57c0.2014-1.8125 1.0069-2.2153 2.4167-2.6181l1.8125 1.6111-0.2014 0.2014 0.4028-0.4028c1.8125-3.625-5.4376-4.6319-5.4376-0.8055v0.8055c0 0.6042 0.6042 1.007 1.007 1.2084z" inkscape:connector-curvature="0" class="fil0"/>
    <polygon id="_86975792" points="72.702 138.15 72.702 137.95 72.098 138.15 72.098 138.76 72.702 138.76" class="fil0"/>
    <path id="_86975984" d="m110.56 140.37 0.8056 0.6042c0.2014-1.4098 0.6042-2.0139 1.8125-2.0139h0.6042c1.0069 0 1.2083 0.4027 1.4097 1.2083h0.8056l0.6041-1.2083v-0.8056c-1.0069-0.4028-1.0069-1.007-2.618-1.007h-0.6042c-1.6111 0-2.8195 1.2084-2.8195 3.2223z" inkscape:connector-curvature="0" class="fil0"/>
    <path id="_86976704" d="m89.015 135.74c0.8055 0.2014 1.6111 0.6042 1.6111 1.4097v1.007c0 0.8056-0.8056 1.2083-1.6111 1.2083h-0.6042c-1.6111 0-1.8125-1.0069-2.4167-1.8125-1.0069 1.6111 1.6111 3.2223 3.4236 3.2223h0.2014c1.2084 0 3.0209-1.2084 3.0209-2.2153v-1.007c0-1.4097-1.007-2.4167-2.2153-2.4167h-0.6042c-0.6041 0-0.4028 0-0.8055 0.6042z" inkscape:connector-curvature="0" class="fil0"/>
    <path id="_86976248" d="m72.098 138.76v-0.6042c-0.6042 0.4028-0.8056 0.6042-1.6111 0.6042h-0.2014c-1.4098 0-2.4167-1.007-2.4167-2.4167v-0.4028c0-1.007 1.0069-1.2083 1.8125-1.4097l-0.2014-0.4028h-2.2153c-0.6042 0.4028-1.4097 1.0069-1.4097 2.2153 0 1.0069 2.6181 3.8264 3.2222 3.8264h0.8056c1.2083 0 1.6111-0.8056 2.2153-1.4097z" inkscape:connector-curvature="0" class="fil0"/>
    <path id="_86976848" d="m101.3 134.53h-1.007c0.2014 1.4097 2.4167 3.0208 4.0278 3.0208h0.6042c1.2083 0 1.007-0.6042 2.0139-0.6042h0.6042c1.6111 0 1.0069 2.6181-0.2014 3.2223-1.007 0.8056-3.2223 0.2014-4.8334 0.6042-2.8194 0.8055-6.4445 0.4027-8.0556 2.618 3.4236-0.2014 11.681-2.4166 14.097 0.8056l3.6251 1.4097 0.4027-0.2014-2.0139-4.8333c-0.4027-0.4028-0.4027-0.4028-0.4027-1.2084 0-1.6111 1.8125-3.0208 3.625-3.0208h0.8055c1.4098 0 3.2223 1.6111 2.2153 3.2222 0 1.4098 0.8056 2.0139 2.0139 2.0139h2.6181c0.8056 0 1.6111-0.4028 2.2153-0.8055-0.8056-0.4028-5.8403-0.4028-5.8403-2.6181v-0.4028c0-1.8125 2.2153-3.4236 4.2292-3.4236 1.6111 0 3.8264 0.8055 3.8264 2.0139v0.8055c0 1.2084-1.6111 1.8126-2.8195 1.8126-1.2083 0-2.0139-0.6042-2.0139-1.8126 0.6042 0.6042 0.8056 1.007 2.0139 1.007 1.2084 0 2.0139-0.4028 2.0139-1.8125 0-0.8056-1.8125-1.2084-2.8194-1.2084-1.6112 0-3.4237 0.6042-3.4237 2.4167v0.6042c0 0.8056 1.007 1.2083 1.6112 1.6111 3.4236 0 8.257 0.8056 8.257-2.8195 0-0.8055-1.6112-2.4166-2.2153-2.8194-1.007-0.2014-4.4306-1.4097-4.4306-1.4097-3.0209 0-4.2292 1.6111-6.2431 2.618-0.6042 0.4028-1.4098 0.6042-2.4167 0.6042-1.8125 0-3.0209-0.8056-3.0209-2.8195 0-1.2083 1.6112-2.0139 2.4167-2.4167 1.4098-1.0069 3.0209 0.6042 4.632 0.6042h0.4028c2.4167 0 1.6111-1.8125 2.4167-3.2222v2.2153l1.0069-0.4028h-0.8055v-2.0139c0.2013-0.8056 0.6041-0.8056 0.6041-1.8125 0-0.6042-2.618-2.2153-3.2222-2.4167v-1.4097c0-1.007 1.0069-1.4098 1.8125-1.8126 1.6111-0.6041 0.8056-0.6041 1.8125-1.4097l4.8334-1.8125 0.2014 0.4028c-0.6042-0.8056-1.4098-1.2084-2.6181-1.2084h-1.007c-0.2013 0-4.4305 1.6112-5.0347 2.0139-0.8056 0.4028-2.4167 3.4237-2.8195 4.2292l3.0209 4.8334-0.6042 0.4028c-0.6042 0.2014-0.6042 0.2014-1.4097 0.2014h-1.007l-8.0556-0.4028c-0.6042 0-1.8125 0.6042-2.0139 1.0069 9.264 0.8056 4.0278 6.6459-0.2014 6.6459-0.8055 0-2.8195-0.4028-3.4236-0.8055z" inkscape:connector-curvature="0" class="fil0"/>
    <path id="_86977256" d="m123.86 141.18c-0.4028 0.4028-1.2083 1.007-2.0139 1.007l-3.4236-0.2014c-1.007 0.2014-1.8126-0.6042-2.0139-1.4097-1.2084 0.2014-2.2153 1.0069-2.2153 2.0139 0 1.2083 1.4097 2.6181 2.618 2.6181h0.2014c0.4028 0 4.0278-0.8056 4.8334-1.007 1.4097-0.4028 2.8195-0.8056 3.2222-2.2153 2.4167 0 2.8195-0.2014 3.8265-1.8125 0.8055-1.4097 2.2152-1.007 2.2152-3.0209v-1.0069c0-1.2084-2.4166-2.2153-3.8264-2.2153-0.4028 0.8056 2.2153 0.6042 2.2153 3.625 0 2.2153-4.0278 2.8195-5.6389 3.625z" inkscape:connector-curvature="0" class="fil0"/>
    <path id="_86978312" d="m42.695 141.18-0.8056-0.6041-2.8194 1.0069c-0.8056 0.4028-1.007 0.8056-2.6181 0.8056-1.2083 0-1.6111-0.8056-2.4167-1.4097-1.0069-0.4028-2.2153-0.2014-3.2222-0.8056-0.8056-0.4028-3.4237-2.8195-3.4237-4.0278v-0.2014c0-2.2153 5.2362-3.2222 3.2223-3.4236-2.6181 0.2014-7.0487 2.8194-4.8334 5.4375 0.8056 1.007 1.2084 0.8056 1.8125 1.4097 0.6042 1.007 0.2014 1.007 0.8056 2.0139 1.0069 1.4098 2.6181 1.007 4.8334 1.007 0.6041 1.2083 2.0139 2.8195 3.8264 2.8195h0.4027c1.2084 0 5.8404-0.6042 5.8404-2.014v-0.6041c0-0.8056-0.4028-1.007-0.6042-1.4098z" inkscape:connector-curvature="0" class="fil0"/>
    <path id="_86977544" d="m66.258 141.98-2.2153 0.2014-2.2153 3.4236c1.6111 2.2153 3.0208 1.6112 5.2361 3.0209l5.0348 0.2014h0.2014c2.2153 0 5.6389-0.6042 5.4375-3.0209l-0.2014-4.4306c4.632-1.2083 2.0139 2.8195 2.0139 4.2292v1.4098c0 2.2153 2.8195 2.4166 4.632 1.4097 0.6042 0.4028 1.4097 1.0069 2.4167 1.0069h1.8125c3.0209 0 6.0417-0.8055 6.0417-4.2291-0.6042-1.007-1.6111-1.8126-3.2222-1.8126h-1.8126c-1.2083 0-1.6111 0.6042-2.2152 1.4098 0.2013 0.8055 1.0069 1.8125 1.8125 1.8125h1.2083c1.4097 0 1.4097-0.6042 1.4097-2.2153h0.6042c0.2014 1.4097 0.2014 3.0208-1.4097 3.0208h-1.007c-2.0139 0-3.0208-0.8055-3.0208-3.0208l-0.4028 0.4028-6.4445-4.632c-1.4097 0.8056-3.2222-1.4097-4.8334 1.4097-1.0069 1.6111-1.8125 2.6181-4.4306 2.6181-0.4027 1.007-1.2083 1.8125-2.618 1.8125h-0.8056c-1.6111 0-2.2153-1.2083-2.2153-2.8195 0.6042 1.007 1.007 2.014 2.8195 2.014 1.0069 0 2.0139-0.4028 2.0139-1.4098 0-1.6111-1.8125-1.8125-3.625-1.8125z" inkscape:connector-curvature="0" class="fil0"/>
    <polygon id="_86978096" points="95.056 148.02 94.855 147.82 94.251 148.63" class="fil0"/>
    <path id="_86978696" d="m94.855 147.82 0.2014 0.2014c0.8055-0.4028 1.8125-0.6042 3.2222-0.6042h2.4167c3.0209 0 5.0348 5.4376-1.4097 5.4376-2.0139 0-2.6181-1.2084-2.6181-3.2223 0.4028 0.6042 1.007 2.0139 2.0139 2.0139h1.8125c1.007 0 1.4097-0.8055 1.6111-1.8125-0.2014-0.6041-1.4097-1.8125-2.0139-1.8125h-1.8125c-2.6181 0-5.0347 1.6111-5.0347 4.2292v0.2014c0 0.4028 0.6041 1.2083 0.8055 1.6111 0.8056 0.4028 2.0139 1.2084 3.0209 1.2084h0.8055c1.8126 0 2.2153-1.4098 4.0278-1.4098 1.007-0.8055 4.632-1.8125 4.632-4.0278v-1.2083c0-2.2153-5.6389-2.8195-7.8542-2.8195-2.4167 0-3.0209 0.4028-3.8264 2.0139z" inkscape:connector-curvature="0" class="fil0"/>
    <path id="_86977448" d="m55.382 152.45c-0.4028-0.2014-3.625-3.625-3.625-4.0278v-0.8056c0-3.0208 6.4444-2.8194 9.6667-2.8194v-0.6042c-0.2014-1.6111-2.0139-1.8125-3.625-1.8125v0.2014l-5.0348 0.2014-1.0069-0.2014c-1.4098 0-6.2431 2.4167-6.2431 3.625v0.6042c0 2.8194 10.875 8.257 9.8681 5.6389z" inkscape:connector-curvature="0" class="fil0"/>
    <path id="_86990384" d="m55.987 152.25c1.0069 0.6042 4.2292 1.6111 5.8403 1.6111h1.2083c1.6111 0 2.8195-1.2083 2.8195-3.2222-1.2084-0.8056-1.6111-3.2223-4.4306-3.2223h-2.4167c-0.8056 0-1.6111 0.8056-1.6111 1.8126 0 1.2083 2.0139 2.0139 3.4236 2.0139 0.8056 0 1.6111-1.2084 2.2153-1.6112v1.6112c-0.6042 0.4027-0.8055 0.8055-1.4097 0.8055h-1.6111c-1.2084 0-3.8265-1.8125-3.8265-2.8194v-0.6042c0-1.8125 3.6251-2.2153 5.4376-2.4167-1.007-1.2083-8.8612-0.8056-8.8612 1.2083v0.6042c0 1.4097 2.4167 3.4237 3.2223 4.2292z" inkscape:connector-curvature="0" class="fil0"/>
    <path id="_86990216" d="m79.549 154.26c0.4028 1.007 2.6181 2.8195 3.8264 2.8195h1.007c3.4236 0 4.0278-2.4167 6.0417-3.625l3.4236 0.8055c-0.6041-0.2014-1.4097-0.8055-1.4097-1.4097v-1.2084c0-0.8055 0.6042-1.4097 0.8056-2.0139l-7.6529 0.6042 1.8125 1.4097c-0.2013 1.8126-1.0069 3.4237-2.4166 3.4237h-1.007c-1.6111 0-2.4167-0.8056-2.4167-2.2153 1.4098 1.6111 4.4306 2.6181 4.632-0.6042-0.2014-0.8055-0.8056-1.8125-1.8125-1.8125h-1.007c-2.2153 0-3.8264 1.4097-3.8264 3.8264z" inkscape:connector-curvature="0" class="fil0"/>
    <path id="_86991800" d="m95.056 145.2 4.4306-0.2014c1.8125-0.2014 7.6528 1.0069 8.0556 3.2222 0.8055 3.625-3.0209 4.632-5.0348 5.8403h3.0209c1.0069 0 4.8333-3.4236 5.6389-4.2292 3.4236-3.625-2.4167-4.6319-2.8195-5.4375-1.2083-0.6042-1.8125-1.2084-3.625-1.2084h-6.8473c-1.0069 0-3.4236 0.6042-2.8194 2.014z" inkscape:connector-curvature="0" class="fil0"/>
    <path id="_86991488" d="m66.056 150.44c1.6111 2.4167-0.8056 2.6181-1.8125 3.8264l3.8264-0.8055c1.0069 0.8055 3.4236 3.625 6.0417 3.625h1.0069c1.8125 0 3.6251-1.4098 3.8265-3.0209-0.2014-2.2153-2.014-4.0278-4.632-3.8264-3.4237 0.4028-3.0209 4.0278-1.007 4.0278h1.007c1.6111 0 1.8125-0.6042 1.8125-2.2153h0.6042c0.4027 1.8125 0.6041 3.2223-2.4167 3.2223-1.2084 0-3.4237-1.4098-3.4237-2.4167v-1.4097c0-0.8056 1.2084-1.007 1.6112-1.8126l-5.8404-0.8055-1.4097-0.2014 0.8056 1.8125z" inkscape:connector-curvature="0" class="fil0"/>
  </g>
  <metadata id="metadata135">
    <rdf:RDF>
      <cc:Work>
        <dc:format>image/svg+xml</dc:format>
        <dc:type rdf:resource="http://purl.org/dc/dcmitype/StillImage"/>
        <cc:license rdf:resource="http://creativecommons.org/licenses/publicdomain/"/>
        <dc:publisher>
          <cc:Agent rdf:about="http://openclipart.org/">
            <dc:title>Openclipart</dc:title>
          </cc:Agent>
        </dc:publisher>
      </cc:Work>
      <cc:License rdf:about="http://creativecommons.org/licenses/publicdomain/">
        <cc:permits rdf:resource="http://creativecommons.org/ns#Reproduction"/>
        <cc:permits rdf:resource="http://creativecommons.org/ns#Distribution"/>
        <cc:permits rdf:resource="http://creativecommons.org/ns#DerivativeWorks"/>
      </cc:License>
    </rdf:RDF>
  </metadata>
</svg>
